<svg width="1920" height="1280" viewBox="0 0 1920 1280" fill="none" xmlns="http://www.w3.org/2000/svg">
<g opacity="0.12">
<g opacity="0.26">
<path d="M1653.25 88.0641H1688.32V123.136H1653.25V88.0641ZM1685.76 90.6241H1655.81V120.576H1685.76V90.6241Z" fill="#B4D744"/>
<path d="M1660.16 146.432H1681.66V167.936H1660.16V146.432ZM1678.85 148.992H1662.46V165.376H1678.85V148.992Z" fill="#B4D744"/>
<path d="M1663.49 187.648H1678.08V202.24H1663.49V187.648ZM1675.52 190.208H1666.05V199.68H1675.52V190.208Z" fill="#B4D744"/>
<path d="M1666.82 225.28H1674.5V232.96H1666.82V225.28ZM1672.19 227.84H1669.63V230.4H1672.19V227.84Z" fill="#B4D744"/>
</g>
<g opacity="0.26">
<path d="M1487.62 325.888H1526.53V364.8H1487.62V325.888ZM1523.71 328.448H1489.92V362.24H1523.71V328.448Z" fill="#B4D744"/>
<path d="M1495.3 390.912H1518.85V414.464H1495.3V390.912ZM1516.03 393.472H1497.6V411.904H1516.03V393.472Z" fill="#B4D744"/>
<path d="M1498.88 436.48H1514.75V452.352H1498.88V436.48ZM1512.45 439.04H1501.7V449.792H1512.45V439.04Z" fill="#B4D744"/>
<path d="M1502.72 478.464H1510.91V486.656H1502.72V478.464ZM1508.61 481.024H1505.28V484.096H1508.35V481.024H1508.61Z" fill="#B4D744"/>
</g>
<g opacity="0.26">
<path d="M727.296 348.928H755.712V377.344H727.296V348.928ZM753.152 351.488H729.856V374.784H753.152V351.488Z" fill="#B4D744"/>
<path d="M732.672 395.008H750.08V412.416H732.672V395.008ZM747.776 397.568H735.488V409.856H747.776V397.568Z" fill="#B4D744"/>
<path d="M735.488 427.52H747.52V439.552H735.488V427.52ZM744.96 430.08H738.048V436.992H744.96V430.08Z" fill="#B4D744"/>
<path d="M738.304 457.472H744.96V464.128H738.304V457.472ZM742.144 460.032H740.608V461.568H742.144V460.032Z" fill="#B4D744"/>
</g>
<g opacity="0.26">
<path d="M697.342 609.024H725.502V637.184H697.342V609.024ZM719.358 615.424H703.998V630.784H719.358V615.424Z" fill="#B4D744"/>
<path d="M701.95 648.192H720.894V667.136H701.95V648.192ZM714.75 654.592H708.606V660.736H714.75V654.592Z" fill="#B4D744"/>
<path d="M704.254 675.84H718.59V690.176H704.254V675.84ZM712.446 682.24H710.91V683.776H712.446V682.24Z" fill="#B4D744"/>
<path d="M716.287 701.184H706.559V710.912H716.287V701.184Z" fill="#B4D744"/>
</g>
<g opacity="0.26">
<path d="M165.376 963.84H190.976V989.44H165.376V963.84ZM188.672 966.4H168.192V986.88H188.672V966.4Z" fill="#B4D744"/>
<path d="M170.239 1005.31H186.111V1021.18H170.239V1005.31ZM183.807 1007.87H173.055V1018.62H183.807V1007.87Z" fill="#B4D744"/>
<path d="M172.799 1034.5H183.807V1045.5H172.799V1034.5ZM181.247 1037.06H175.359V1042.94H181.247V1037.06Z" fill="#B4D744"/>
<path d="M175.104 1061.12H181.248V1067.26H175.104V1061.12ZM178.944 1063.68H177.92V1064.7H178.944V1063.68Z" fill="#B4D744"/>
</g>
<g opacity="0.26">
<path d="M234.24 627.969H255.488V649.217H234.24V627.969ZM252.928 630.529H236.8V646.657H252.928V630.529Z" fill="#B4D744"/>
<path d="M238.08 661.504H251.392V674.816H238.08V661.504ZM249.088 664.064H240.64V672.256H248.832V664.064H249.088Z" fill="#B4D744"/>
<path d="M240.128 685.056H249.6V694.528H240.128V685.056ZM247.04 687.616H242.688V691.968H247.04V687.616Z" fill="#B4D744"/>
<path d="M242.176 706.816H247.808V712.448H242.176V706.816ZM244.992 709.376H244.48V709.888H244.992V709.376Z" fill="#B4D744"/>
</g>
<g opacity="0.26">
<path d="M98.5595 509.184H124.928V535.552H98.5595V509.184ZM122.368 511.744H101.12V532.992H122.368V511.744Z" fill="#B4D744"/>
<path d="M103.679 551.936H120.063V568.32H103.679V551.936ZM117.247 554.496H105.983V565.76H117.247V554.496Z" fill="#B4D744"/>
<path d="M105.983 581.888H117.247V593.152H105.983V581.888ZM114.943 584.448H108.799V590.592H114.943V584.448Z" fill="#B4D744"/>
<path d="M108.544 609.536H114.944V615.936H108.544V609.536ZM112.384 612.096H111.104V613.376H112.384V612.096Z" fill="#B4D744"/>
</g>
<g opacity="0.26">
<path d="M1077.25 1080.83H1102.08V1105.66H1077.25V1080.83ZM1099.52 1083.39H1079.81V1103.1H1099.52V1083.39Z" fill="#B4D744"/>
<path d="M1081.86 1120.77H1097.47V1136.38H1081.86V1120.77ZM1094.91 1123.33H1084.42V1133.82H1094.91V1123.33Z" fill="#B4D744"/>
<path d="M1084.16 1148.93H1094.91V1159.68H1084.16V1148.93ZM1092.61 1151.49H1086.98V1157.12H1092.61V1151.49Z" fill="#B4D744"/>
<path d="M1086.72 1175.04H1092.86V1181.18H1086.72V1175.04ZM1090.05 1177.6H1089.02V1178.62H1090.05V1177.6Z" fill="#B4D744"/>
</g>
<g opacity="0.26">
<path d="M1284.1 596.992H1314.82V627.712H1284.1V596.992ZM1312.51 599.552H1286.91V625.152H1312.51V599.552Z" fill="#B4D744"/>
<path d="M1290.24 647.424H1309.18V666.368H1290.24V647.424ZM1306.37 649.984H1292.8V663.808H1306.62V649.984H1306.37Z" fill="#B4D744"/>
<path d="M1293.06 683.008H1306.11V696.064H1293.06V683.008ZM1303.55 685.568H1295.62V693.504H1303.55V685.568Z" fill="#B4D744"/>
<path d="M1296.13 715.776H1303.04V722.688H1296.13V715.776ZM1300.48 718.336H1298.69V720.128H1300.48V718.336Z" fill="#B4D744"/>
</g>
<g opacity="0.26">
<path d="M337.918 1092.35H351.742V1106.18H337.918V1092.35ZM348.926 1094.91H340.478V1103.62H349.182V1094.91H348.926Z" fill="#B4D744"/>
<path d="M340.222 1112.32H349.182V1121.28H340.222V1112.32ZM346.622 1114.88H342.782V1118.72H346.622V1114.88Z" fill="#B4D744"/>
<path d="M341.246 1126.4H347.902V1133.06H341.246V1126.4ZM345.598 1128.96H344.062V1130.5H345.598V1128.96Z" fill="#B4D744"/>
<path d="M346.879 1139.46H342.527V1143.81H346.879V1139.46Z" fill="#B4D744"/>
</g>
<g opacity="0.26">
<path d="M1602.05 792.576H1629.44V819.968H1602.05V792.576ZM1626.88 795.136H1604.61V817.408H1626.88V795.136Z" fill="#B4D744"/>
<path d="M1607.17 836.864H1624.06V853.76H1607.17V836.864ZM1621.76 839.424H1609.98V851.2H1621.76V839.424Z" fill="#B4D744"/>
<path d="M1609.98 868.352H1621.76V880.128H1609.98V868.352ZM1618.94 870.912H1612.29V877.568H1618.94V870.912Z" fill="#B4D744"/>
<path d="M1612.54 897.024H1618.94V903.424H1612.54V897.024ZM1616.38 899.584H1615.1V900.864H1616.38V899.584Z" fill="#B4D744"/>
</g>
<g opacity="0.26">
<path d="M342.783 114.688H367.103V139.008H342.783V114.688ZM364.543 117.248H345.343V136.448H364.543V117.248Z" fill="#B4D744"/>
<path d="M347.391 153.344H362.495V168.448H347.391V153.344ZM359.935 155.904H349.951V165.888H359.935V155.904Z" fill="#B4D744"/>
<path d="M349.695 180.736H360.191V191.232H349.695V180.736ZM357.631 183.296H352.255V188.672H357.631V183.296Z" fill="#B4D744"/>
<path d="M351.999 205.824H357.887V211.712H351.999V205.824ZM355.327 208.384H354.559V209.152H355.327V208.384Z" fill="#B4D744"/>
</g>
<g opacity="0.26">
<path d="M861.951 168.96H871.679V178.944H861.951V168.96ZM869.375 171.52H864.767V176.384H869.375V171.52Z" fill="#B4D744"/>
<path d="M863.487 182.016H870.399V188.672H863.487V182.016ZM867.839 184.576H866.047V186.112H867.839V184.576Z" fill="#B4D744"/>
<path d="M864.256 191.232H869.376V196.352H864.256V191.232Z" fill="#B4D744"/>
<path d="M868.863 199.68H865.023V203.52H868.863V199.68Z" fill="#B4D744"/>
</g>
<g opacity="0.26">
<path d="M1043.71 560.128H1053.7V570.112H1043.71V560.128ZM1051.14 562.688H1046.27V567.552H1051.14V562.688Z" fill="#B4D744"/>
<path d="M1045.25 573.696H1052.16V580.608H1045.25V573.696ZM1049.6 576.256H1047.81V578.048H1049.6V576.256Z" fill="#B4D744"/>
<path d="M1046.02 583.168H1051.39V588.544H1046.02V583.168Z" fill="#B4D744"/>
<path d="M1050.62 591.872H1046.78V595.712H1050.62V591.872Z" fill="#B4D744"/>
</g>
<g opacity="0.26">
<path d="M130.56 301.056H149.248V319.744H130.56V301.056ZM146.688 303.616H133.12V317.184H146.688V303.616Z" fill="#B4D744"/>
<path d="M133.888 329.728H145.92V341.504H134.144V329.728H133.888ZM143.36 332.288H136.704V338.944H143.36V332.288Z" fill="#B4D744"/>
<path d="M135.679 349.952H144.127V358.4H135.679V349.952ZM141.567 352.512H138.239V355.84H141.567V352.512Z" fill="#B4D744"/>
<path d="M142.591 368.64H137.471V373.76H142.591V368.64Z" fill="#B4D744"/>
</g>
<g opacity="0.26">
<path d="M1102.59 701.441H1112.32V711.425H1102.59V701.441ZM1110.01 704.001H1105.41V708.865H1110.01V704.001Z" fill="#B4D744"/>
<path d="M1104.13 714.496H1111.04V721.152H1104.13V714.496ZM1108.48 717.056H1106.69V718.592H1108.48V717.056Z" fill="#B4D744"/>
<path d="M1104.89 723.712H1110.01V728.832H1104.89V723.712Z" fill="#B4D744"/>
<path d="M1109.5 732.16H1105.66V736H1109.5V732.16Z" fill="#B4D744"/>
</g>
<g opacity="0.26">
<path d="M860.161 746.24H897.025V783.104H860.161V746.24ZM894.208 748.8H862.721V780.544H894.465V748.8H894.208Z" fill="#B4D744"/>
<path d="M867.328 807.68H889.856V830.208H867.328V807.68ZM887.04 810.24H869.632V827.648H887.04V810.24Z" fill="#B4D744"/>
<path d="M870.912 850.944H886.016V866.048H870.912V850.944ZM883.456 853.504H873.472V863.488H883.456V853.504Z" fill="#B4D744"/>
<path d="M874.496 890.624H882.432V898.56H874.496V890.624ZM879.872 893.184H877.056V896H879.872V893.184Z" fill="#B4D744"/>
</g>
<g opacity="0.26">
<path d="M536.062 760.32H550.142V774.4H536.062V760.32ZM547.582 762.88H538.622V771.84H547.582V762.88Z" fill="#B4D744"/>
<path d="M538.623 780.8H547.839V790.016H538.623V780.8ZM545.023 783.36H540.927V787.456H545.023V783.36Z" fill="#B4D744"/>
<path d="M539.646 795.136H546.301V801.792H539.646V795.136ZM543.998 797.696H542.461V799.232H543.998V797.696Z" fill="#B4D744"/>
<path d="M545.279 808.448H540.927V812.8H545.279V808.448Z" fill="#B4D744"/>
</g>
<g opacity="0.26">
<path d="M539.648 217.6H569.344V247.296H539.648V217.6ZM567.04 220.16H542.464V244.736H567.04V220.16Z" fill="#B4D744"/>
<path d="M545.536 266.24H563.968V284.672H545.536V266.24ZM561.152 268.8H547.84V282.112H561.152V268.8Z" fill="#B4D744"/>
<path d="M548.352 300.8H560.896V313.344H548.352V300.8ZM558.336 303.36H550.912V310.784H558.336V303.36Z" fill="#B4D744"/>
<path d="M551.167 332.288H558.079V339.2H551.167V332.288ZM555.519 334.848H553.727V336.64H555.519V334.848Z" fill="#B4D744"/>
</g>
<g opacity="0.26">
<path d="M598.783 886.784H631.039V919.04H598.783V886.784ZM628.223 889.344H601.087V916.48H628.223V889.344Z" fill="#B4D744"/>
<path d="M604.927 940.032H624.639V959.744H604.927V940.032ZM622.079 942.592H607.487V957.184H622.079V942.592Z" fill="#B4D744"/>
<path d="M607.999 977.408H621.567V990.976H607.999V977.408ZM619.007 979.968H610.559V988.416H619.007V979.968Z" fill="#B4D744"/>
<path d="M611.071 1011.71H618.239V1018.88H611.071V1011.71ZM615.935 1014.27H613.887V1016.32H615.935V1014.27Z" fill="#B4D744"/>
</g>
<g opacity="0.26">
<path d="M1257.73 134.144H1269.5V145.92H1257.73V134.144ZM1267.2 136.704H1260.54V143.36H1267.2V136.704Z" fill="#B4D744"/>
<path d="M1259.78 150.528H1267.71V158.464H1259.78V150.528ZM1265.15 153.088H1262.34V155.904H1265.15V153.088Z" fill="#B4D744"/>
<path d="M1260.8 162.304H1266.69V168.192H1260.8V162.304ZM1264.13 164.864H1263.36V165.632H1264.13V164.864Z" fill="#B4D744"/>
<path d="M1265.92 173.056H1261.82V177.152H1265.92V173.056Z" fill="#B4D744"/>
</g>
<g opacity="0.26">
<path d="M1292.8 955.392H1316.61V979.2H1292.8V955.392ZM1314.05 957.952H1295.36V976.64H1314.05V957.952Z" fill="#B4D744"/>
<path d="M1297.41 993.28H1312.26V1008.13H1297.41V993.28ZM1309.44 995.84H1299.71V1005.57H1309.44V995.84Z" fill="#B4D744"/>
<path d="M1299.46 1019.9H1309.7V1030.14H1299.46V1019.9ZM1307.39 1022.46H1302.27V1027.58H1307.39V1022.46Z" fill="#B4D744"/>
<path d="M1301.76 1044.48H1307.65V1050.37H1301.76V1044.48ZM1305.09 1047.04H1304.32V1047.81H1305.09V1047.04Z" fill="#B4D744"/>
</g>
<g opacity="0.26">
<path d="M1684.99 425.984H1704.96V445.952H1684.99V425.984ZM1702.4 428.544H1687.55V443.392H1702.4V428.544Z" fill="#B4D744"/>
</g>
<g opacity="0.26">
<path d="M1774.34 261.888H1799.68V287.232H1774.34V261.888ZM1797.38 264.448H1777.15V284.672H1797.38V264.448Z" fill="#B4D744"/>
</g>
<g opacity="0.26">
<path d="M1727.23 703.744H1744.38V720.896H1727.23V703.744ZM1741.82 706.304H1729.79V718.336H1741.82V706.304Z" fill="#B4D744"/>
</g>
<g opacity="0.26">
<path d="M1453.31 777.984H1475.58V800.256H1453.31V777.984ZM1473.02 780.544H1455.87V797.696H1473.02V780.544Z" fill="#B4D744"/>
</g>
<g opacity="0.26">
<path d="M1474.56 635.392H1490.43V651.264H1474.56V635.392ZM1487.87 637.952H1477.12V648.704H1487.87V637.952Z" fill="#B4D744"/>
</g>
<g opacity="0.26">
<path d="M1471.74 1014.02H1492.99V1035.26H1471.74V1014.02ZM1490.69 1016.58H1474.56V1032.7H1490.69V1016.58Z" fill="#B4D744"/>
</g>
<g opacity="0.26">
<path d="M1774.34 899.328H1794.82V919.808H1774.34V899.328ZM1792.26 901.888H1776.9V917.248H1792.26V901.888Z" fill="#B4D744"/>
</g>
<g opacity="0.26">
<path d="M1376.26 1118.21H1388.8V1130.75H1376.26V1118.21ZM1386.24 1120.77H1378.82V1128.19H1386.24V1120.77Z" fill="#B4D744"/>
</g>
<g opacity="0.26">
<path d="M886.528 1007.36H916.224V1037.06H886.528V1007.36ZM913.664 1009.92H889.088V1034.5H913.664V1009.92Z" fill="#B4D744"/>
</g>
<g opacity="0.26">
<path d="M1156.1 900.608H1168.64V913.152H1156.1V900.608ZM1166.08 903.168H1158.66V910.592H1166.08V903.168Z" fill="#B4D744"/>
</g>
<g opacity="0.26">
<path d="M1258.75 370.944H1276.16V388.352H1258.75V370.944ZM1273.6 373.504H1261.31V385.792H1273.6V373.504Z" fill="#B4D744"/>
</g>
<g opacity="0.26">
<path d="M1370.88 439.296H1394.69V463.104H1370.88V439.296ZM1391.87 441.856H1373.18V460.544H1391.87V441.856Z" fill="#B4D744"/>
</g>
<g opacity="0.26">
<path d="M1603.58 557.056H1635.33V588.8H1603.58V557.056ZM1632.51 559.616H1605.89V586.24H1632.51V559.616Z" fill="#B4D744"/>
</g>
<g opacity="0.26">
<path d="M415.999 890.112H454.911V929.024H415.999V890.112ZM452.351 892.672H418.559V926.464H452.351V892.672Z" fill="#B4D744"/>
</g>
<g opacity="0.26">
<path d="M377.856 665.088H400.896V688.128H377.856V665.088ZM398.336 667.648H380.416V685.568H398.336V667.648Z" fill="#B4D744"/>
</g>
<g opacity="0.26">
<path d="M1049.86 128.768H1065.22V144.128H1049.86V128.768ZM1062.66 131.328H1052.42V141.568H1062.66V131.328Z" fill="#B4D744"/>
</g>
<g opacity="0.26">
<path d="M1014.78 257.536H1044.22V286.72H1014.78V257.536ZM1041.41 260.096H1017.09V284.16H1041.41V260.096Z" fill="#B4D744"/>
</g>
<g opacity="0.26">
<path d="M669.696 165.632H687.872V183.808H669.696V165.632ZM685.056 168.192H672V181.248H685.056V168.192Z" fill="#B4D744"/>
</g>
<g opacity="0.26">
<path d="M880.384 489.216H891.648V500.48H880.384V489.216ZM889.088 491.776H882.944V497.92H889.088V491.776Z" fill="#B4D744"/>
</g>
<g opacity="0.26">
<path d="M454.912 278.784H472.32V296.192H454.912V278.784ZM469.76 281.344H457.472V293.632H469.76V281.344Z" fill="#B4D744"/>
</g>
<g opacity="0.26">
<path d="M713.728 1014.27H737.792V1038.34H713.728V1014.27ZM736 1016.06H715.264V1036.8H736V1016.06Z" fill="#B4D744"/>
</g>
<g opacity="0.26">
<path d="M505.343 68.6079H529.407V92.6719H505.343V68.6079ZM527.615 70.1439H506.879V90.8799H527.615V70.1439Z" fill="#B4D744"/>
</g>
<g opacity="0.26">
<path d="M528.127 1137.92H547.583V1157.38H528.127V1137.92ZM545.023 1140.48H530.687V1154.82H545.023V1140.48Z" fill="#B4D744"/>
</g>
<g opacity="0.26">
<path d="M115.2 113.152H131.072V129.024H115.2V113.152ZM128.512 115.712H117.76V126.464H128.512V115.712Z" fill="#B4D744"/>
</g>
<g opacity="0.26">
<path d="M548.351 518.144H580.607V550.4H548.351V518.144ZM578.047 520.704H550.911V547.84H578.047V520.704Z" fill="#B4D744"/>
</g>
<g opacity="0.26">
<path d="M1224.45 485.12H1249.02V509.696H1224.45V485.12ZM1246.46 487.68H1227.01V507.136H1246.46V487.68Z" fill="#B4D744"/>
</g>
<g opacity="0.26">
<path d="M1288.45 800H1313.02V824.576H1288.45V800ZM1310.46 802.56H1291.01V822.016H1310.46V802.56Z" fill="#B4D744"/>
</g>
<g opacity="0.26">
<path d="M350.976 510.208H371.2V530.432H350.976V510.208ZM368.896 512.768H353.792V527.872H368.896V512.768Z" fill="#B4D744"/>
</g>
<g opacity="0.26">
<path d="M99.3271 798.72H136.447V835.84H99.3271V798.72ZM133.887 801.28H101.887V833.28H133.887V801.28Z" fill="#B4D744"/>
</g>
<g opacity="0.26">
<path d="M880.127 651.264H903.423V674.816H880.127V651.264ZM900.863 653.824H882.687V672.256H900.863V653.824Z" fill="#B4D744"/>
</g>
<g opacity="0.26">
<path d="M278.783 830.976H301.567V853.76H278.783V830.976ZM299.007 833.536H281.343V851.2H299.007V833.536Z" fill="#B4D744"/>
</g>
<g opacity="0.26">
<path d="M291.327 371.2H328.703V408.576H291.327V371.2ZM326.143 373.76H293.887V406.016H326.143V373.76Z" fill="#B4D744"/>
</g>
<g opacity="0.26">
<path d="M1491.2 191.232H1514.75V214.784H1491.2V191.232ZM1512.19 193.792H1493.76V212.224H1512.19V193.792Z" fill="#B4D744"/>
</g>
<g opacity="0.26">
<path d="M1707.52 1083.39H1738.5V1114.37H1707.52V1083.39ZM1736.19 1085.95H1710.08V1111.81H1735.94V1085.95H1736.19Z" fill="#B4D744"/>
</g>
<g opacity="0.78">
<path d="M245.246 123.392H209.918V88.0641H244.99V123.392H245.246ZM212.478 120.832H242.43V90.6241H212.478V120.832Z" fill="url(#paint0_linear_128_160)"/>
<path d="M238.335 167.936H216.831V146.432H238.335V167.936ZM219.391 165.376H235.775V148.992H219.391V165.376Z" fill="url(#paint1_linear_128_160)"/>
<path d="M234.751 202.24H220.159V187.648H234.751V202.24ZM222.975 199.68H232.447V190.208H222.975V199.68Z" fill="url(#paint2_linear_128_160)"/>
<path d="M231.423 233.216H223.743V225.536H231.423V233.216ZM226.303 230.656H228.863V228.096H226.303V230.656Z" fill="url(#paint3_linear_128_160)"/>
</g>
<g opacity="0.78">
<path d="M410.88 364.8H371.968V325.888H410.88V364.8ZM374.528 362.24H408.32V328.448H374.528V362.24Z" fill="url(#paint4_linear_128_160)"/>
<path d="M403.2 414.464H379.648V390.912H403.2V414.464ZM382.208 411.904H400.64V393.472H382.208V411.904Z" fill="url(#paint5_linear_128_160)"/>
<path d="M399.36 452.608H383.488V436.736H399.36V452.608ZM386.048 450.048H396.8V439.296H386.048V450.048Z" fill="url(#paint6_linear_128_160)"/>
<path d="M395.519 486.912H387.327V478.72H395.519V486.912ZM389.887 484.352H392.959V481.28H389.887V484.352Z" fill="url(#paint7_linear_128_160)"/>
</g>
<g opacity="0.78">
<path d="M1145.34 400.128H1116.93V371.712H1145.34V400.128ZM1119.74 397.568H1143.04V374.272H1119.74V397.568Z" fill="url(#paint8_linear_128_160)"/>
<path d="M1139.97 435.456H1122.56V418.048H1139.97V435.456ZM1125.12 432.896H1137.41V420.608H1125.12V432.896Z" fill="url(#paint9_linear_128_160)"/>
<path d="M1137.41 462.592H1125.38V450.56H1137.41V462.592ZM1127.68 460.032H1134.59V453.12H1127.68V460.032Z" fill="url(#paint10_linear_128_160)"/>
<path d="M1134.59 486.912H1127.94V480.256H1134.59V486.912ZM1130.5 484.352H1132.03V482.816H1130.5V484.352Z" fill="url(#paint11_linear_128_160)"/>
</g>
<g opacity="0.78">
<path d="M1182.98 632.832H1171.71V621.568H1182.98V632.832ZM1174.27 630.272H1180.42V624.128H1174.27V630.272Z" fill="url(#paint12_linear_128_160)"/>
<path d="M1181.18 644.864H1173.5V637.184H1181.18V644.864ZM1176.06 642.304H1178.62V639.744H1176.06V642.304Z" fill="url(#paint13_linear_128_160)"/>
<path d="M1180.16 654.08H1174.27V648.192H1180.16V654.08ZM1177.09 651.52H1177.86V650.752H1177.09V651.52Z" fill="url(#paint14_linear_128_160)"/>
<path d="M1179.14 658.432H1175.3V662.272H1179.14V658.432Z" fill="url(#paint15_linear_128_160)"/>
</g>
<g opacity="0.78">
<path d="M1732.86 989.696H1707.26V964.096H1732.86V989.696ZM1709.82 987.136H1730.3V966.656H1709.82V987.136Z" fill="url(#paint16_linear_128_160)"/>
<path d="M1728 1021.18H1712.13V1005.31H1728V1021.18ZM1714.69 1018.62H1725.44V1007.87H1714.69V1018.62Z" fill="url(#paint17_linear_128_160)"/>
<path d="M1725.69 1045.5H1714.69V1034.5H1725.69V1045.5ZM1716.99 1042.94H1722.88V1037.06H1716.99V1042.94Z" fill="url(#paint18_linear_128_160)"/>
<path d="M1723.13 1067.52H1716.99V1061.38H1723.13V1067.52ZM1719.55 1064.96H1720.57V1063.94H1719.55V1064.96Z" fill="url(#paint19_linear_128_160)"/>
</g>
<g opacity="0.78">
<path d="M1664.26 649.216H1643.01V627.968H1664.26V649.216ZM1645.31 646.656H1661.44V630.528H1645.31V646.656Z" fill="url(#paint20_linear_128_160)"/>
<path d="M1660.16 674.816H1646.85V661.504H1660.16V674.816ZM1649.41 672.256H1657.6V664.064H1649.41V672.256Z" fill="url(#paint21_linear_128_160)"/>
<path d="M1658.37 694.528H1648.9V685.056H1658.37V694.528ZM1651.46 691.968H1655.81V687.616H1651.46V691.968Z" fill="url(#paint22_linear_128_160)"/>
<path d="M1656.32 712.192H1650.69V706.56H1656.32V712.192ZM1653.25 709.632H1653.76V709.12H1653.25V709.632Z" fill="url(#paint23_linear_128_160)"/>
</g>
<g opacity="0.78">
<path d="M923.902 84.224H902.654V62.976H923.902V84.224ZM905.214 81.6639H921.342V65.536H905.214V81.6639Z" fill="url(#paint24_linear_128_160)"/>
<path d="M920.063 109.824H906.751V96.512H920.063V109.824ZM909.055 107.264H917.247V99.072H909.055V107.264Z" fill="url(#paint25_linear_128_160)"/>
<path d="M918.015 129.536H908.543V120.064H918.015V129.536ZM911.103 126.976H915.455V122.624H911.103V126.976Z" fill="url(#paint26_linear_128_160)"/>
<path d="M915.967 147.456H910.335V141.824H915.967V147.456ZM913.151 144.896H913.663V144.384H913.151V144.896Z" fill="url(#paint27_linear_128_160)"/>
</g>
<g opacity="0.78">
<path d="M1125.12 186.624H1103.87V165.376H1125.12V186.624ZM1106.43 184.064H1122.56V167.936H1106.43V184.064Z" fill="url(#paint28_linear_128_160)"/>
<path d="M1121.28 212.224H1107.97V198.912H1121.28V212.224ZM1110.53 209.664H1118.72V201.472H1110.53V209.664Z" fill="url(#paint29_linear_128_160)"/>
<path d="M1119.23 231.936H1109.76V222.464H1119.23V231.936ZM1112.32 229.376H1116.67V225.024H1112.32V229.376Z" fill="url(#paint30_linear_128_160)"/>
<path d="M1117.44 249.6H1111.81V243.968H1117.44V249.6ZM1114.37 247.04H1114.88V246.528H1114.37V247.04Z" fill="url(#paint31_linear_128_160)"/>
</g>
<g opacity="0.78">
<path d="M1799.94 535.551H1773.57V509.183H1799.94V535.551ZM1775.87 532.991H1797.12V511.743H1775.87V532.991Z" fill="url(#paint32_linear_128_160)"/>
<path d="M1794.82 568.319H1778.43V551.935H1794.82V568.319ZM1780.99 565.759H1792.26V554.495H1780.99V565.759Z" fill="url(#paint33_linear_128_160)"/>
<path d="M1792.26 593.407H1780.99V582.143H1792.26V593.407ZM1783.55 590.847H1789.7V584.703H1783.55V590.847Z" fill="url(#paint34_linear_128_160)"/>
<path d="M1789.7 615.935H1783.3V609.535H1789.7V615.935ZM1786.11 613.375H1787.39V612.095H1786.11V613.375Z" fill="url(#paint35_linear_128_160)"/>
</g>
<g opacity="0.78">
<path d="M821.248 1105.66H796.161V1080.83H820.993V1105.66H821.248ZM798.721 1103.1H818.433V1083.39H798.721V1103.1Z" fill="url(#paint36_linear_128_160)"/>
<path d="M816.384 1136.38H800.768V1120.77H816.384V1136.38ZM803.584 1133.82H814.08V1123.33H803.584V1133.82Z" fill="url(#paint37_linear_128_160)"/>
<path d="M814.08 1159.94H803.328V1149.18H814.08V1159.94ZM805.888 1157.38H811.52V1151.74H805.888V1157.38Z" fill="url(#paint38_linear_128_160)"/>
<path d="M811.775 1180.93H805.631V1175.04H811.775V1180.93ZM808.191 1178.37H809.215V1177.6H808.191V1178.37Z" fill="url(#paint39_linear_128_160)"/>
</g>
<g opacity="0.78">
<path d="M588.543 635.392H557.823V604.672H588.543V635.392ZM560.383 632.832H585.983V607.232H560.383V632.832Z" fill="url(#paint40_linear_128_160)"/>
<path d="M582.656 674.048H563.712V655.104H582.656V674.048ZM566.272 671.488H580.096V657.664H566.272V671.488Z" fill="url(#paint41_linear_128_160)"/>
<path d="M579.582 703.744H566.526V690.688H579.582V703.744ZM569.342 701.184H577.278V693.248H569.342V701.184Z" fill="url(#paint42_linear_128_160)"/>
<path d="M576.767 730.368H569.855V723.456H576.767V730.368ZM572.159 727.808H573.951V726.016H572.159V727.808Z" fill="url(#paint43_linear_128_160)"/>
</g>
<g opacity="0.78">
<path d="M1560.58 1106.18H1546.75V1092.35H1560.58V1106.18ZM1549.31 1103.62H1558.02V1094.91H1549.31V1103.62Z" fill="url(#paint44_linear_128_160)"/>
<path d="M1558.27 1121.54H1549.31V1112.58H1558.27V1121.54ZM1551.61 1118.98H1555.45V1115.14H1551.61V1118.98Z" fill="url(#paint45_linear_128_160)"/>
<path d="M1556.99 1133.31H1550.33V1126.4H1556.99V1133.31ZM1552.89 1130.75H1554.43V1128.96H1552.89V1130.75Z" fill="url(#paint46_linear_128_160)"/>
<path d="M1555.97 1139.46H1551.61V1143.81H1555.97V1139.46Z" fill="url(#paint47_linear_128_160)"/>
</g>
<g opacity="0.78">
<path d="M296.191 819.968H268.799V792.576H296.191V819.968ZM271.615 817.408H293.887V795.136H271.615V817.408Z" fill="url(#paint48_linear_128_160)"/>
<path d="M291.071 853.76H274.175V836.864H291.071V853.76ZM276.735 851.2H288.511V839.424H276.735V851.2Z" fill="url(#paint49_linear_128_160)"/>
<path d="M288.512 879.872H276.736V868.096H288.512V879.872ZM279.296 877.312H285.952V870.656H279.296V877.312Z" fill="url(#paint50_linear_128_160)"/>
<path d="M285.951 903.424H279.551V897.024H285.951V903.424ZM281.855 900.864H283.135V899.584H281.855V900.864Z" fill="url(#paint51_linear_128_160)"/>
</g>
<g opacity="0.78">
<path d="M1555.46 138.752H1531.14V114.432H1555.46V138.752ZM1533.95 136.192H1553.15V116.992H1533.95V136.192Z" fill="url(#paint52_linear_128_160)"/>
<path d="M1551.1 168.448H1536V153.344H1551.1V168.448ZM1538.56 165.888H1548.54V155.904H1538.56V165.888Z" fill="url(#paint53_linear_128_160)"/>
<path d="M1548.8 191.232H1538.3V180.736H1548.8V191.232ZM1540.61 188.672H1545.98V183.296H1540.61V188.672Z" fill="url(#paint54_linear_128_160)"/>
<path d="M1546.5 211.712H1540.61V205.824H1546.5V211.712ZM1542.91 209.152H1543.68V208.384H1542.91V209.152Z" fill="url(#paint55_linear_128_160)"/>
</g>
<g opacity="0.78">
<path d="M852.224 534.528H842.24V524.544H852.224V534.528ZM844.544 531.968H849.408V527.104H844.544V531.968Z" fill="url(#paint56_linear_128_160)"/>
<path d="M850.689 544.767H843.777V537.855H850.689V544.767ZM846.337 542.207H848.129V540.415H846.337V542.207Z" fill="url(#paint57_linear_128_160)"/>
<path d="M849.664 552.703H844.288V547.328H849.664V552.703Z" fill="url(#paint58_linear_128_160)"/>
<path d="M849.152 556.032H845.312V559.872H849.152V556.032Z" fill="url(#paint59_linear_128_160)"/>
</g>
<g opacity="0.78">
<path d="M1767.68 319.488H1748.99V300.8H1767.68V319.488ZM1751.81 316.928H1765.38V303.36H1751.81V316.928Z" fill="url(#paint60_linear_128_160)"/>
<path d="M1764.35 341.504H1752.58V329.728H1764.35V341.504ZM1755.14 338.944H1761.79V332.288H1755.14V338.944Z" fill="url(#paint61_linear_128_160)"/>
<path d="M1762.82 358.4H1754.37V349.952H1762.82V358.4ZM1756.67 355.84H1760V352.512H1756.67V355.84Z" fill="url(#paint62_linear_128_160)"/>
<path d="M1761.02 368.64H1755.9V373.76H1761.02V368.64Z" fill="url(#paint63_linear_128_160)"/>
</g>
<g opacity="0.78">
<path d="M795.646 711.425H785.918V701.441H795.646V711.425ZM788.478 708.865H793.086V704.001H788.478V708.865Z" fill="url(#paint64_linear_128_160)"/>
<path d="M794.111 721.408H787.199V714.752H794.111V721.408ZM790.015 718.848H791.807V717.312H790.015V718.848Z" fill="url(#paint65_linear_128_160)"/>
<path d="M793.342 729.089H788.222V723.969H793.342V729.089Z" fill="url(#paint66_linear_128_160)"/>
<path d="M792.831 732.16H788.991V736H792.831V732.16Z" fill="url(#paint67_linear_128_160)"/>
</g>
<g opacity="0.78">
<path d="M999.935 844.544H963.071V807.68H999.935V844.544ZM965.631 841.984H997.375V810.24H965.631V841.984Z" fill="url(#paint68_linear_128_160)"/>
<path d="M992.768 891.392H970.24V868.864H992.768V891.392ZM972.8 888.832H990.208V871.424H972.8V888.832Z" fill="url(#paint69_linear_128_160)"/>
<path d="M989.184 927.488H974.08V912.384H989.184V927.488ZM976.384 924.928H986.368V914.944H976.384V924.928Z" fill="url(#paint70_linear_128_160)"/>
<path d="M985.599 960H977.663V952.064H985.599V960ZM979.967 957.44H982.783V954.624H979.967V957.44Z" fill="url(#paint71_linear_128_160)"/>
</g>
<g opacity="0.78">
<path d="M1362.18 774.4H1348.1V760.32H1362.18V774.4ZM1350.91 771.84H1359.87V762.88H1350.91V771.84Z" fill="url(#paint72_linear_128_160)"/>
<path d="M1359.87 790.016H1350.66V780.8H1359.87V790.016ZM1353.22 787.456H1357.31V783.36H1353.22V787.456Z" fill="url(#paint73_linear_128_160)"/>
<path d="M1358.59 802.048H1351.94V795.392H1358.59V802.048ZM1354.5 799.488H1356.03V797.952H1354.5V799.488Z" fill="url(#paint74_linear_128_160)"/>
<path d="M1357.57 808.448H1353.22V812.8H1357.57V808.448Z" fill="url(#paint75_linear_128_160)"/>
</g>
<g opacity="0.78">
<path d="M1358.59 247.296H1328.9V217.6H1358.59V247.296ZM1331.46 244.736H1356.03V220.16H1331.46V244.736Z" fill="url(#paint76_linear_128_160)"/>
<path d="M1352.96 284.672H1334.53V266.24H1352.96V284.672ZM1337.09 282.112H1350.4V268.8H1337.09V282.112Z" fill="url(#paint77_linear_128_160)"/>
<path d="M1350.14 313.344H1337.6V300.8H1350.14V313.344ZM1339.9 310.784H1347.33V303.36H1339.9V310.784Z" fill="url(#paint78_linear_128_160)"/>
<path d="M1347.07 339.2H1340.16V332.288H1347.07V339.2ZM1342.98 336.64H1344.77V334.848H1342.98V336.64Z" fill="url(#paint79_linear_128_160)"/>
</g>
<g opacity="0.78">
<path d="M1235.71 824.319H1203.46V792.063H1235.71V824.319ZM1206.02 821.759H1233.15V794.623H1206.02V821.759Z" fill="url(#paint80_linear_128_160)"/>
<path d="M1229.57 865.024H1209.86V845.312H1229.57V865.024ZM1212.16 862.464H1226.75V847.872H1212.16V862.464Z" fill="url(#paint81_linear_128_160)"/>
<path d="M1226.24 896.256H1212.67V882.688H1226.24V896.256ZM1215.49 893.696H1223.94V885.248H1215.49V893.696Z" fill="url(#paint82_linear_128_160)"/>
<path d="M1223.17 924.416H1216V917.248H1223.17V924.416ZM1218.56 921.856H1220.61V919.808H1218.56V921.856Z" fill="url(#paint83_linear_128_160)"/>
</g>
<g opacity="0.78">
<path d="M640.513 145.92H628.737V134.144H640.513V145.92ZM631.297 143.36H637.953V136.704H631.297V143.36Z" fill="url(#paint84_linear_128_160)"/>
<path d="M638.465 158.464H630.529V150.528H638.465V158.464ZM633.345 155.904H636.161V153.088H633.345V155.904Z" fill="url(#paint85_linear_128_160)"/>
<path d="M637.696 168.192H631.808V162.304H637.696V168.192ZM634.112 165.632H634.88V164.864H634.112V165.632Z" fill="url(#paint86_linear_128_160)"/>
<path d="M636.672 173.056H632.576V177.152H636.672V173.056Z" fill="url(#paint87_linear_128_160)"/>
</g>
<g opacity="0.78">
<path d="M541.439 979.2H517.631V955.392H541.439V979.2ZM520.447 976.64H539.135V957.952H520.447V976.64Z" fill="url(#paint88_linear_128_160)"/>
<path d="M537.087 1008.13H522.239V993.28H537.087V1008.13ZM524.799 1005.57H534.527V995.84H524.799V1005.57Z" fill="url(#paint89_linear_128_160)"/>
<path d="M534.783 1030.4H524.543V1020.16H534.783V1030.4ZM527.103 1027.84H532.223V1022.72H527.103V1027.84Z" fill="url(#paint90_linear_128_160)"/>
<path d="M532.735 1050.37H526.847V1044.48H532.735V1050.37ZM529.407 1047.81H530.175V1047.04H529.407V1047.81Z" fill="url(#paint91_linear_128_160)"/>
</g>
<g opacity="0.78">
<path d="M213.503 445.952H193.535V425.984H213.503V445.952ZM195.839 443.392H210.687V428.544H195.839V443.392Z" fill="url(#paint92_linear_128_160)"/>
</g>
<g opacity="0.78">
<path d="M123.904 287.232H98.5595V261.888H123.904V287.232ZM101.12 284.672H121.344V264.448H101.12V284.672Z" fill="url(#paint93_linear_128_160)"/>
</g>
<g opacity="0.78">
<path d="M171.008 720.896H153.856V703.744H171.008V720.896ZM156.416 718.336H168.448V706.304H156.416V718.336Z" fill="url(#paint94_linear_128_160)"/>
</g>
<g opacity="0.78">
<path d="M444.927 800.256H422.655V777.984H444.927V800.256ZM425.215 797.696H442.367V780.544H425.215V797.696Z" fill="url(#paint95_linear_128_160)"/>
</g>
<g opacity="0.78">
<path d="M423.935 651.264H408.063V635.392H423.935V651.264ZM410.367 648.704H421.119V637.952H410.367V648.704Z" fill="url(#paint96_linear_128_160)"/>
</g>
<g opacity="0.78">
<path d="M426.496 1035.26H405.247V1014.02H426.496V1035.26ZM407.807 1032.7H423.936V1016.58H407.807V1032.7Z" fill="url(#paint97_linear_128_160)"/>
</g>
<g opacity="0.78">
<path d="M124.159 919.808H103.679V899.328H124.159V919.808ZM105.983 917.248H121.343V901.888H105.983V917.248Z" fill="url(#paint98_linear_128_160)"/>
</g>
<g opacity="0.78">
<path d="M521.983 1130.75H509.44V1118.21H521.983V1130.75ZM512 1128.19H519.423V1120.77H512V1128.19Z" fill="url(#paint99_linear_128_160)"/>
</g>
<g opacity="0.78">
<path d="M999.167 1162.5H969.471V1132.8H999.167V1162.5ZM971.775 1159.94H996.351V1135.36H971.775V1159.94Z" fill="url(#paint100_linear_128_160)"/>
</g>
<g opacity="0.78">
<path d="M742.143 913.152H729.599V900.608H742.143V913.152ZM732.159 910.592H739.583V903.168H732.159V910.592Z" fill="url(#paint101_linear_128_160)"/>
</g>
<g opacity="0.78">
<path d="M639.744 388.352H622.336V370.944H639.744V388.352ZM624.896 385.792H637.184V373.504H624.896V385.792Z" fill="url(#paint102_linear_128_160)"/>
</g>
<g opacity="0.78">
<path d="M527.616 463.104H503.808V439.296H527.616V463.104ZM506.368 460.544H525.056V441.856H506.368V460.544Z" fill="url(#paint103_linear_128_160)"/>
</g>
<g opacity="0.78">
<path d="M294.911 588.8H263.167V557.056H294.911V588.8ZM265.727 586.24H292.351V559.616H265.727V586.24Z" fill="url(#paint104_linear_128_160)"/>
</g>
<g opacity="0.78">
<path d="M1482.24 929.024H1443.33V890.112H1482.24V929.024ZM1446.14 926.464H1479.68V892.672H1445.89V926.464H1446.14Z" fill="url(#paint105_linear_128_160)"/>
</g>
<g opacity="0.78">
<path d="M1520.64 688.128H1497.6V665.088H1520.64V688.128ZM1500.16 685.568H1518.08V667.648H1500.16V685.568Z" fill="url(#paint106_linear_128_160)"/>
</g>
<g opacity="0.78">
<path d="M838.4 215.808H823.04V200.448H838.4V215.808ZM825.344 213.248H835.584V203.008H825.344V213.248Z" fill="url(#paint107_linear_128_160)"/>
</g>
<g opacity="0.78">
<path d="M919.551 353.28H890.111V324.096H919.551V353.28ZM892.671 350.72H916.991V326.656H892.671V350.72Z" fill="url(#paint108_linear_128_160)"/>
</g>
<g opacity="0.78">
<path d="M1228.8 183.808H1210.62V165.632H1228.8V183.808ZM1213.18 181.248H1226.24V168.192H1213.18V181.248Z" fill="url(#paint109_linear_128_160)"/>
</g>
<g opacity="0.78">
<path d="M1015.55 467.2H1004.29V455.936H1015.55V467.2ZM1006.85 464.64H1012.99V458.496H1006.85V464.64Z" fill="url(#paint110_linear_128_160)"/>
</g>
<g opacity="0.78">
<path d="M1481.98 334.592H1464.58V317.184H1481.98V334.592ZM1467.14 332.032H1479.42V319.744H1467.14V332.032Z" fill="url(#paint111_linear_128_160)"/>
</g>
<g opacity="0.78">
<path d="M1223.17 1074.18H1185.79V1036.8H1223.17V1074.18ZM1188.35 1071.62H1220.61V1039.36H1188.35V1071.62Z" fill="url(#paint112_linear_128_160)"/>
</g>
<g opacity="0.78">
<path d="M1370.37 1157.38H1350.91V1137.92H1370.37V1157.38ZM1353.22 1154.82H1367.55V1140.48H1353.22V1154.82Z" fill="url(#paint113_linear_128_160)"/>
</g>
<g opacity="0.78">
<path d="M1783.29 129.024H1767.42V113.152H1783.29V129.024ZM1769.73 126.464H1780.48V115.712H1769.73V126.464Z" fill="url(#paint114_linear_128_160)"/>
</g>
<g opacity="0.78">
<path d="M770.048 112.896H754.176V97.0242H770.048V112.896ZM756.736 110.336H767.488V99.5842H756.736V110.336Z" fill="url(#paint115_linear_128_160)"/>
</g>
<g opacity="0.78">
<path d="M1349.89 550.4H1317.63V518.144H1349.89V550.4ZM1320.19 547.84H1347.33V520.704H1320.19V547.84Z" fill="url(#paint116_linear_128_160)"/>
</g>
<g opacity="0.78">
<path d="M674.047 509.696H649.471V485.12H674.047V509.696ZM651.775 507.136H671.231V487.68H651.775V507.136Z" fill="url(#paint117_linear_128_160)"/>
</g>
<g opacity="0.78">
<path d="M610.047 824.576H585.471V800H610.047V824.576ZM587.775 822.016H607.231V802.56H587.775V822.016Z" fill="url(#paint118_linear_128_160)"/>
</g>
<g opacity="0.78">
<path d="M1547.26 530.432H1527.04V510.208H1547.26V530.432ZM1529.6 527.872H1544.7V512.768H1529.6V527.872Z" fill="url(#paint119_linear_128_160)"/>
</g>
<g opacity="0.78">
<path d="M1798.91 835.84H1761.79V798.72H1798.91V835.84ZM1764.35 833.28H1796.35V801.28H1764.35V833.28Z" fill="url(#paint120_linear_128_160)"/>
</g>
<g opacity="0.78">
<path d="M1028.61 728.576H1005.31V705.024H1028.61V728.576ZM1007.62 726.016H1025.79V707.584H1007.62V726.016Z" fill="url(#paint121_linear_128_160)"/>
</g>
<g opacity="0.78">
<path d="M1619.45 853.76H1596.67V830.976H1619.45V853.76ZM1599.49 851.2H1617.15V833.536H1599.49V851.2Z" fill="url(#paint122_linear_128_160)"/>
</g>
<g opacity="0.78">
<path d="M1607.17 408.576H1569.79V371.2H1607.17V408.576ZM1572.35 406.016H1604.61V373.76H1572.35V406.016Z" fill="url(#paint123_linear_128_160)"/>
</g>
<g opacity="0.78">
<path d="M407.04 214.784H383.488V191.232H407.04V214.784ZM386.304 212.224H404.736V193.792H386.304V212.224Z" fill="url(#paint124_linear_128_160)"/>
</g>
<g opacity="0.78">
<path d="M208.639 1152.77H177.663V1121.79H208.639V1152.77ZM180.223 1150.21H206.079V1124.35H180.223V1150.21Z" fill="url(#paint125_linear_128_160)"/>
</g>
</g>
<defs>
<linearGradient id="paint0_linear_128_160" x1="227.592" y1="58.683" x2="227.592" y2="1353.36" gradientUnits="userSpaceOnUse">
<stop stop-color="white"/>
<stop offset="1" stop-color="white" stop-opacity="0"/>
</linearGradient>
<linearGradient id="paint1_linear_128_160" x1="227.593" y1="58.6835" x2="227.593" y2="1353.36" gradientUnits="userSpaceOnUse">
<stop stop-color="white"/>
<stop offset="1" stop-color="white" stop-opacity="0"/>
</linearGradient>
<linearGradient id="paint2_linear_128_160" x1="227.593" y1="58.6844" x2="227.593" y2="1353.35" gradientUnits="userSpaceOnUse">
<stop stop-color="white"/>
<stop offset="1" stop-color="white" stop-opacity="0"/>
</linearGradient>
<linearGradient id="paint3_linear_128_160" x1="227.592" y1="58.6808" x2="227.592" y2="1353.38" gradientUnits="userSpaceOnUse">
<stop stop-color="white"/>
<stop offset="1" stop-color="white" stop-opacity="0"/>
</linearGradient>
<linearGradient id="paint4_linear_128_160" x1="391.434" y1="58.6826" x2="391.434" y2="1353.36" gradientUnits="userSpaceOnUse">
<stop stop-color="white"/>
<stop offset="1" stop-color="white" stop-opacity="0"/>
</linearGradient>
<linearGradient id="paint5_linear_128_160" x1="391.434" y1="58.6832" x2="391.434" y2="1353.36" gradientUnits="userSpaceOnUse">
<stop stop-color="white"/>
<stop offset="1" stop-color="white" stop-opacity="0"/>
</linearGradient>
<linearGradient id="paint6_linear_128_160" x1="391.434" y1="58.6865" x2="391.434" y2="1353.35" gradientUnits="userSpaceOnUse">
<stop stop-color="white"/>
<stop offset="1" stop-color="white" stop-opacity="0"/>
</linearGradient>
<linearGradient id="paint7_linear_128_160" x1="391.433" y1="58.6785" x2="391.433" y2="1353.37" gradientUnits="userSpaceOnUse">
<stop stop-color="white"/>
<stop offset="1" stop-color="white" stop-opacity="0"/>
</linearGradient>
<linearGradient id="paint8_linear_128_160" x1="1131.27" y1="81.7219" x2="1131.27" y2="1376.4" gradientUnits="userSpaceOnUse">
<stop stop-color="white"/>
<stop offset="1" stop-color="white" stop-opacity="0"/>
</linearGradient>
<linearGradient id="paint9_linear_128_160" x1="1131.27" y1="81.7214" x2="1131.27" y2="1376.4" gradientUnits="userSpaceOnUse">
<stop stop-color="white"/>
<stop offset="1" stop-color="white" stop-opacity="0"/>
</linearGradient>
<linearGradient id="paint10_linear_128_160" x1="1131.27" y1="81.7204" x2="1131.27" y2="1376.41" gradientUnits="userSpaceOnUse">
<stop stop-color="white"/>
<stop offset="1" stop-color="white" stop-opacity="0"/>
</linearGradient>
<linearGradient id="paint11_linear_128_160" x1="1131.27" y1="81.7292" x2="1131.27" y2="1376.39" gradientUnits="userSpaceOnUse">
<stop stop-color="white"/>
<stop offset="1" stop-color="white" stop-opacity="0"/>
</linearGradient>
<linearGradient id="paint12_linear_128_160" x1="1177.35" y1="-15.5543" x2="1177.35" y2="1279.12" gradientUnits="userSpaceOnUse">
<stop stop-color="white"/>
<stop offset="1" stop-color="white" stop-opacity="0"/>
</linearGradient>
<linearGradient id="paint13_linear_128_160" x1="1177.35" y1="-15.5616" x2="1177.35" y2="1279.12" gradientUnits="userSpaceOnUse">
<stop stop-color="white"/>
<stop offset="1" stop-color="white" stop-opacity="0"/>
</linearGradient>
<linearGradient id="paint14_linear_128_160" x1="1177.35" y1="-15.5676" x2="1177.35" y2="1279.13" gradientUnits="userSpaceOnUse">
<stop stop-color="white"/>
<stop offset="1" stop-color="white" stop-opacity="0"/>
</linearGradient>
<linearGradient id="paint15_linear_128_160" x1="1177.35" y1="-15.5397" x2="1177.35" y2="1279.1" gradientUnits="userSpaceOnUse">
<stop stop-color="white"/>
<stop offset="1" stop-color="white" stop-opacity="0"/>
</linearGradient>
<linearGradient id="paint16_linear_128_160" x1="1720.07" y1="58.6834" x2="1720.07" y2="1353.36" gradientUnits="userSpaceOnUse">
<stop stop-color="white"/>
<stop offset="1" stop-color="white" stop-opacity="0"/>
</linearGradient>
<linearGradient id="paint17_linear_128_160" x1="1720.07" y1="58.685" x2="1720.07" y2="1353.36" gradientUnits="userSpaceOnUse">
<stop stop-color="white"/>
<stop offset="1" stop-color="white" stop-opacity="0"/>
</linearGradient>
<linearGradient id="paint18_linear_128_160" x1="1720.07" y1="58.6848" x2="1720.07" y2="1353.36" gradientUnits="userSpaceOnUse">
<stop stop-color="white"/>
<stop offset="1" stop-color="white" stop-opacity="0"/>
</linearGradient>
<linearGradient id="paint19_linear_128_160" x1="1720.07" y1="58.6877" x2="1720.07" y2="1353.36" gradientUnits="userSpaceOnUse">
<stop stop-color="white"/>
<stop offset="1" stop-color="white" stop-opacity="0"/>
</linearGradient>
<linearGradient id="paint20_linear_128_160" x1="1653.51" y1="58.6867" x2="1653.51" y2="1353.36" gradientUnits="userSpaceOnUse">
<stop stop-color="white"/>
<stop offset="1" stop-color="white" stop-opacity="0"/>
</linearGradient>
<linearGradient id="paint21_linear_128_160" x1="1653.51" y1="58.6768" x2="1653.51" y2="1353.37" gradientUnits="userSpaceOnUse">
<stop stop-color="white"/>
<stop offset="1" stop-color="white" stop-opacity="0"/>
</linearGradient>
<linearGradient id="paint22_linear_128_160" x1="1653.51" y1="58.6736" x2="1653.51" y2="1353.37" gradientUnits="userSpaceOnUse">
<stop stop-color="white"/>
<stop offset="1" stop-color="white" stop-opacity="0"/>
</linearGradient>
<linearGradient id="paint23_linear_128_160" x1="1653.51" y1="58.7019" x2="1653.51" y2="1353.34" gradientUnits="userSpaceOnUse">
<stop stop-color="white"/>
<stop offset="1" stop-color="white" stop-opacity="0"/>
</linearGradient>
<linearGradient id="paint24_linear_128_160" x1="913.318" y1="-506.195" x2="913.318" y2="788.475" gradientUnits="userSpaceOnUse">
<stop stop-color="white"/>
<stop offset="1" stop-color="white" stop-opacity="0"/>
</linearGradient>
<linearGradient id="paint25_linear_128_160" x1="913.318" y1="-506.204" x2="913.318" y2="788.485" gradientUnits="userSpaceOnUse">
<stop stop-color="white"/>
<stop offset="1" stop-color="white" stop-opacity="0"/>
</linearGradient>
<linearGradient id="paint26_linear_128_160" x1="913.318" y1="-506.194" x2="913.318" y2="788.473" gradientUnits="userSpaceOnUse">
<stop stop-color="white"/>
<stop offset="1" stop-color="white" stop-opacity="0"/>
</linearGradient>
<linearGradient id="paint27_linear_128_160" x1="913.319" y1="-506.206" x2="913.319" y2="788.485" gradientUnits="userSpaceOnUse">
<stop stop-color="white"/>
<stop offset="1" stop-color="white" stop-opacity="0"/>
</linearGradient>
<linearGradient id="paint28_linear_128_160" x1="1114.58" y1="-403.859" x2="1114.58" y2="890.812" gradientUnits="userSpaceOnUse">
<stop stop-color="white"/>
<stop offset="1" stop-color="white" stop-opacity="0"/>
</linearGradient>
<linearGradient id="paint29_linear_128_160" x1="1114.58" y1="-403.868" x2="1114.58" y2="890.822" gradientUnits="userSpaceOnUse">
<stop stop-color="white"/>
<stop offset="1" stop-color="white" stop-opacity="0"/>
</linearGradient>
<linearGradient id="paint30_linear_128_160" x1="1114.58" y1="-403.858" x2="1114.58" y2="890.81" gradientUnits="userSpaceOnUse">
<stop stop-color="white"/>
<stop offset="1" stop-color="white" stop-opacity="0"/>
</linearGradient>
<linearGradient id="paint31_linear_128_160" x1="1114.58" y1="-403.87" x2="1114.58" y2="890.821" gradientUnits="userSpaceOnUse">
<stop stop-color="white"/>
<stop offset="1" stop-color="white" stop-opacity="0"/>
</linearGradient>
<linearGradient id="paint32_linear_128_160" x1="1786.63" y1="58.6808" x2="1786.63" y2="1353.36" gradientUnits="userSpaceOnUse">
<stop stop-color="white"/>
<stop offset="1" stop-color="white" stop-opacity="0"/>
</linearGradient>
<linearGradient id="paint33_linear_128_160" x1="1786.63" y1="58.6861" x2="1786.63" y2="1353.35" gradientUnits="userSpaceOnUse">
<stop stop-color="white"/>
<stop offset="1" stop-color="white" stop-opacity="0"/>
</linearGradient>
<linearGradient id="paint34_linear_128_160" x1="1786.63" y1="58.6903" x2="1786.63" y2="1353.35" gradientUnits="userSpaceOnUse">
<stop stop-color="white"/>
<stop offset="1" stop-color="white" stop-opacity="0"/>
</linearGradient>
<linearGradient id="paint35_linear_128_160" x1="1786.63" y1="58.6659" x2="1786.63" y2="1353.38" gradientUnits="userSpaceOnUse">
<stop stop-color="white"/>
<stop offset="1" stop-color="white" stop-opacity="0"/>
</linearGradient>
<linearGradient id="paint36_linear_128_160" x1="808.714" y1="58.6897" x2="808.714" y2="1353.36" gradientUnits="userSpaceOnUse">
<stop stop-color="white"/>
<stop offset="1" stop-color="white" stop-opacity="0"/>
</linearGradient>
<linearGradient id="paint37_linear_128_160" x1="808.714" y1="58.6753" x2="808.714" y2="1353.36" gradientUnits="userSpaceOnUse">
<stop stop-color="white"/>
<stop offset="1" stop-color="white" stop-opacity="0"/>
</linearGradient>
<linearGradient id="paint38_linear_128_160" x1="808.714" y1="58.6575" x2="808.714" y2="1353.36" gradientUnits="userSpaceOnUse">
<stop stop-color="white"/>
<stop offset="1" stop-color="white" stop-opacity="0"/>
</linearGradient>
<linearGradient id="paint39_linear_128_160" x1="808.713" y1="58.7281" x2="808.713" y2="1353.35" gradientUnits="userSpaceOnUse">
<stop stop-color="white"/>
<stop offset="1" stop-color="white" stop-opacity="0"/>
</linearGradient>
<linearGradient id="paint40_linear_128_160" x1="573.193" y1="66.3655" x2="573.193" y2="1361.04" gradientUnits="userSpaceOnUse">
<stop stop-color="white"/>
<stop offset="1" stop-color="white" stop-opacity="0"/>
</linearGradient>
<linearGradient id="paint41_linear_128_160" x1="573.194" y1="66.3614" x2="573.194" y2="1361.04" gradientUnits="userSpaceOnUse">
<stop stop-color="white"/>
<stop offset="1" stop-color="white" stop-opacity="0"/>
</linearGradient>
<linearGradient id="paint42_linear_128_160" x1="573.192" y1="66.357" x2="573.192" y2="1361.05" gradientUnits="userSpaceOnUse">
<stop stop-color="white"/>
<stop offset="1" stop-color="white" stop-opacity="0"/>
</linearGradient>
<linearGradient id="paint43_linear_128_160" x1="573.192" y1="66.379" x2="573.192" y2="1361.03" gradientUnits="userSpaceOnUse">
<stop stop-color="white"/>
<stop offset="1" stop-color="white" stop-opacity="0"/>
</linearGradient>
<linearGradient id="paint44_linear_128_160" x1="1553.67" y1="58.6883" x2="1553.67" y2="1353.36" gradientUnits="userSpaceOnUse">
<stop stop-color="white"/>
<stop offset="1" stop-color="white" stop-opacity="0"/>
</linearGradient>
<linearGradient id="paint45_linear_128_160" x1="1553.67" y1="58.6749" x2="1553.67" y2="1353.36" gradientUnits="userSpaceOnUse">
<stop stop-color="white"/>
<stop offset="1" stop-color="white" stop-opacity="0"/>
</linearGradient>
<linearGradient id="paint46_linear_128_160" x1="1553.67" y1="58.6631" x2="1553.67" y2="1353.36" gradientUnits="userSpaceOnUse">
<stop stop-color="white"/>
<stop offset="1" stop-color="white" stop-opacity="0"/>
</linearGradient>
<linearGradient id="paint47_linear_128_160" x1="1553.67" y1="58.7217" x2="1553.67" y2="1353.35" gradientUnits="userSpaceOnUse">
<stop stop-color="white"/>
<stop offset="1" stop-color="white" stop-opacity="0"/>
</linearGradient>
<linearGradient id="paint48_linear_128_160" x1="282.632" y1="58.6879" x2="282.632" y2="1353.36" gradientUnits="userSpaceOnUse">
<stop stop-color="white"/>
<stop offset="1" stop-color="white" stop-opacity="0"/>
</linearGradient>
<linearGradient id="paint49_linear_128_160" x1="282.633" y1="58.6769" x2="282.633" y2="1353.37" gradientUnits="userSpaceOnUse">
<stop stop-color="white"/>
<stop offset="1" stop-color="white" stop-opacity="0"/>
</linearGradient>
<linearGradient id="paint50_linear_128_160" x1="282.633" y1="58.6685" x2="282.633" y2="1353.37" gradientUnits="userSpaceOnUse">
<stop stop-color="white"/>
<stop offset="1" stop-color="white" stop-opacity="0"/>
</linearGradient>
<linearGradient id="paint51_linear_128_160" x1="282.632" y1="58.7071" x2="282.632" y2="1353.35" gradientUnits="userSpaceOnUse">
<stop stop-color="white"/>
<stop offset="1" stop-color="white" stop-opacity="0"/>
</linearGradient>
<linearGradient id="paint52_linear_128_160" x1="1543.43" y1="58.6829" x2="1543.43" y2="1353.36" gradientUnits="userSpaceOnUse">
<stop stop-color="white"/>
<stop offset="1" stop-color="white" stop-opacity="0"/>
</linearGradient>
<linearGradient id="paint53_linear_128_160" x1="1543.43" y1="58.6835" x2="1543.43" y2="1353.36" gradientUnits="userSpaceOnUse">
<stop stop-color="white"/>
<stop offset="1" stop-color="white" stop-opacity="0"/>
</linearGradient>
<linearGradient id="paint54_linear_128_160" x1="1543.43" y1="58.6844" x2="1543.43" y2="1353.35" gradientUnits="userSpaceOnUse">
<stop stop-color="white"/>
<stop offset="1" stop-color="white" stop-opacity="0"/>
</linearGradient>
<linearGradient id="paint55_linear_128_160" x1="1543.43" y1="58.6811" x2="1543.43" y2="1353.38" gradientUnits="userSpaceOnUse">
<stop stop-color="white"/>
<stop offset="1" stop-color="white" stop-opacity="0"/>
</linearGradient>
<linearGradient id="paint56_linear_128_160" x1="847.114" y1="76.6035" x2="847.114" y2="1371.28" gradientUnits="userSpaceOnUse">
<stop stop-color="white"/>
<stop offset="1" stop-color="white" stop-opacity="0"/>
</linearGradient>
<linearGradient id="paint57_linear_128_160" x1="847.114" y1="76.5989" x2="847.114" y2="1371.29" gradientUnits="userSpaceOnUse">
<stop stop-color="white"/>
<stop offset="1" stop-color="white" stop-opacity="0"/>
</linearGradient>
<linearGradient id="paint58_linear_128_160" x1="847.113" y1="76.5957" x2="847.113" y2="1371.29" gradientUnits="userSpaceOnUse">
<stop stop-color="white"/>
<stop offset="1" stop-color="white" stop-opacity="0"/>
</linearGradient>
<linearGradient id="paint59_linear_128_160" x1="847.113" y1="76.6135" x2="847.113" y2="1371.26" gradientUnits="userSpaceOnUse">
<stop stop-color="white"/>
<stop offset="1" stop-color="white" stop-opacity="0"/>
</linearGradient>
<linearGradient id="paint60_linear_128_160" x1="1758.47" y1="58.6831" x2="1758.47" y2="1353.36" gradientUnits="userSpaceOnUse">
<stop stop-color="white"/>
<stop offset="1" stop-color="white" stop-opacity="0"/>
</linearGradient>
<linearGradient id="paint61_linear_128_160" x1="1758.47" y1="58.6834" x2="1758.47" y2="1353.36" gradientUnits="userSpaceOnUse">
<stop stop-color="white"/>
<stop offset="1" stop-color="white" stop-opacity="0"/>
</linearGradient>
<linearGradient id="paint62_linear_128_160" x1="1758.47" y1="58.6793" x2="1758.47" y2="1353.37" gradientUnits="userSpaceOnUse">
<stop stop-color="white"/>
<stop offset="1" stop-color="white" stop-opacity="0"/>
</linearGradient>
<linearGradient id="paint63_linear_128_160" x1="1758.47" y1="58.6902" x2="1758.47" y2="1353.34" gradientUnits="userSpaceOnUse">
<stop stop-color="white"/>
<stop offset="1" stop-color="white" stop-opacity="0"/>
</linearGradient>
<linearGradient id="paint64_linear_128_160" x1="790.792" y1="58.6844" x2="790.792" y2="1353.36" gradientUnits="userSpaceOnUse">
<stop stop-color="white"/>
<stop offset="1" stop-color="white" stop-opacity="0"/>
</linearGradient>
<linearGradient id="paint65_linear_128_160" x1="790.793" y1="58.6905" x2="790.793" y2="1353.35" gradientUnits="userSpaceOnUse">
<stop stop-color="white"/>
<stop offset="1" stop-color="white" stop-opacity="0"/>
</linearGradient>
<linearGradient id="paint66_linear_128_160" x1="790.792" y1="58.6851" x2="790.792" y2="1353.36" gradientUnits="userSpaceOnUse">
<stop stop-color="white"/>
<stop offset="1" stop-color="white" stop-opacity="0"/>
</linearGradient>
<linearGradient id="paint67_linear_128_160" x1="790.793" y1="58.6812" x2="790.793" y2="1353.36" gradientUnits="userSpaceOnUse">
<stop stop-color="white"/>
<stop offset="1" stop-color="white" stop-opacity="0"/>
</linearGradient>
<linearGradient id="paint68_linear_128_160" x1="981.513" y1="58.6834" x2="981.513" y2="1353.36" gradientUnits="userSpaceOnUse">
<stop stop-color="white"/>
<stop offset="1" stop-color="white" stop-opacity="0"/>
</linearGradient>
<linearGradient id="paint69_linear_128_160" x1="981.514" y1="58.6809" x2="981.514" y2="1353.36" gradientUnits="userSpaceOnUse">
<stop stop-color="white"/>
<stop offset="1" stop-color="white" stop-opacity="0"/>
</linearGradient>
<linearGradient id="paint70_linear_128_160" x1="981.514" y1="58.6773" x2="981.514" y2="1353.36" gradientUnits="userSpaceOnUse">
<stop stop-color="white"/>
<stop offset="1" stop-color="white" stop-opacity="0"/>
</linearGradient>
<linearGradient id="paint71_linear_128_160" x1="981.513" y1="58.6946" x2="981.513" y2="1353.35" gradientUnits="userSpaceOnUse">
<stop stop-color="white"/>
<stop offset="1" stop-color="white" stop-opacity="0"/>
</linearGradient>
<linearGradient id="paint72_linear_128_160" x1="1355.27" y1="58.6888" x2="1355.27" y2="1353.36" gradientUnits="userSpaceOnUse">
<stop stop-color="white"/>
<stop offset="1" stop-color="white" stop-opacity="0"/>
</linearGradient>
<linearGradient id="paint73_linear_128_160" x1="1355.27" y1="58.6734" x2="1355.27" y2="1353.37" gradientUnits="userSpaceOnUse">
<stop stop-color="white"/>
<stop offset="1" stop-color="white" stop-opacity="0"/>
</linearGradient>
<linearGradient id="paint74_linear_128_160" x1="1355.27" y1="58.6673" x2="1355.27" y2="1353.37" gradientUnits="userSpaceOnUse">
<stop stop-color="white"/>
<stop offset="1" stop-color="white" stop-opacity="0"/>
</linearGradient>
<linearGradient id="paint75_linear_128_160" x1="1355.27" y1="58.712" x2="1355.27" y2="1353.34" gradientUnits="userSpaceOnUse">
<stop stop-color="white"/>
<stop offset="1" stop-color="white" stop-opacity="0"/>
</linearGradient>
<linearGradient id="paint76_linear_128_160" x1="1343.75" y1="58.6838" x2="1343.75" y2="1353.36" gradientUnits="userSpaceOnUse">
<stop stop-color="white"/>
<stop offset="1" stop-color="white" stop-opacity="0"/>
</linearGradient>
<linearGradient id="paint77_linear_128_160" x1="1343.75" y1="58.6819" x2="1343.75" y2="1353.37" gradientUnits="userSpaceOnUse">
<stop stop-color="white"/>
<stop offset="1" stop-color="white" stop-opacity="0"/>
</linearGradient>
<linearGradient id="paint78_linear_128_160" x1="1343.75" y1="58.6788" x2="1343.75" y2="1353.38" gradientUnits="userSpaceOnUse">
<stop stop-color="white"/>
<stop offset="1" stop-color="white" stop-opacity="0"/>
</linearGradient>
<linearGradient id="paint79_linear_128_160" x1="1343.75" y1="58.6912" x2="1343.75" y2="1353.33" gradientUnits="userSpaceOnUse">
<stop stop-color="white"/>
<stop offset="1" stop-color="white" stop-opacity="0"/>
</linearGradient>
<linearGradient id="paint80_linear_128_160" x1="1219.59" y1="-36.036" x2="1219.59" y2="1258.64" gradientUnits="userSpaceOnUse">
<stop stop-color="white"/>
<stop offset="1" stop-color="white" stop-opacity="0"/>
</linearGradient>
<linearGradient id="paint81_linear_128_160" x1="1219.59" y1="-36.0403" x2="1219.59" y2="1258.64" gradientUnits="userSpaceOnUse">
<stop stop-color="white"/>
<stop offset="1" stop-color="white" stop-opacity="0"/>
</linearGradient>
<linearGradient id="paint82_linear_128_160" x1="1219.59" y1="-36.0548" x2="1219.59" y2="1258.65" gradientUnits="userSpaceOnUse">
<stop stop-color="white"/>
<stop offset="1" stop-color="white" stop-opacity="0"/>
</linearGradient>
<linearGradient id="paint83_linear_128_160" x1="1219.59" y1="-36.0172" x2="1219.59" y2="1258.63" gradientUnits="userSpaceOnUse">
<stop stop-color="white"/>
<stop offset="1" stop-color="white" stop-opacity="0"/>
</linearGradient>
<linearGradient id="paint84_linear_128_160" x1="634.635" y1="58.6822" x2="634.635" y2="1353.37" gradientUnits="userSpaceOnUse">
<stop stop-color="white"/>
<stop offset="1" stop-color="white" stop-opacity="0"/>
</linearGradient>
<linearGradient id="paint85_linear_128_160" x1="634.634" y1="58.6842" x2="634.634" y2="1353.34" gradientUnits="userSpaceOnUse">
<stop stop-color="white"/>
<stop offset="1" stop-color="white" stop-opacity="0"/>
</linearGradient>
<linearGradient id="paint86_linear_128_160" x1="634.634" y1="58.6871" x2="634.634" y2="1353.32" gradientUnits="userSpaceOnUse">
<stop stop-color="white"/>
<stop offset="1" stop-color="white" stop-opacity="0"/>
</linearGradient>
<linearGradient id="paint87_linear_128_160" x1="634.633" y1="58.6774" x2="634.633" y2="1353.42" gradientUnits="userSpaceOnUse">
<stop stop-color="white"/>
<stop offset="1" stop-color="white" stop-opacity="0"/>
</linearGradient>
<linearGradient id="paint88_linear_128_160" x1="529.673" y1="58.6878" x2="529.673" y2="1353.36" gradientUnits="userSpaceOnUse">
<stop stop-color="white"/>
<stop offset="1" stop-color="white" stop-opacity="0"/>
</linearGradient>
<linearGradient id="paint89_linear_128_160" x1="529.673" y1="58.6779" x2="529.673" y2="1353.36" gradientUnits="userSpaceOnUse">
<stop stop-color="white"/>
<stop offset="1" stop-color="white" stop-opacity="0"/>
</linearGradient>
<linearGradient id="paint90_linear_128_160" x1="529.673" y1="58.6641" x2="529.673" y2="1353.37" gradientUnits="userSpaceOnUse">
<stop stop-color="white"/>
<stop offset="1" stop-color="white" stop-opacity="0"/>
</linearGradient>
<linearGradient id="paint91_linear_128_160" x1="529.673" y1="58.7206" x2="529.673" y2="1353.35" gradientUnits="userSpaceOnUse">
<stop stop-color="white"/>
<stop offset="1" stop-color="white" stop-opacity="0"/>
</linearGradient>
<linearGradient id="paint92_linear_128_160" x1="203.42" y1="58.6838" x2="203.42" y2="1353.36" gradientUnits="userSpaceOnUse">
<stop stop-color="white"/>
<stop offset="1" stop-color="white" stop-opacity="0"/>
</linearGradient>
<linearGradient id="paint93_linear_128_160" x1="111.261" y1="58.6827" x2="111.261" y2="1353.36" gradientUnits="userSpaceOnUse">
<stop stop-color="white"/>
<stop offset="1" stop-color="white" stop-opacity="0"/>
</linearGradient>
<linearGradient id="paint94_linear_128_160" x1="162.462" y1="58.6829" x2="162.462" y2="1353.36" gradientUnits="userSpaceOnUse">
<stop stop-color="white"/>
<stop offset="1" stop-color="white" stop-opacity="0"/>
</linearGradient>
<linearGradient id="paint95_linear_128_160" x1="433.821" y1="58.684" x2="433.821" y2="1353.36" gradientUnits="userSpaceOnUse">
<stop stop-color="white"/>
<stop offset="1" stop-color="white" stop-opacity="0"/>
</linearGradient>
<linearGradient id="paint96_linear_128_160" x1="415.901" y1="58.683" x2="415.901" y2="1353.36" gradientUnits="userSpaceOnUse">
<stop stop-color="white"/>
<stop offset="1" stop-color="white" stop-opacity="0"/>
</linearGradient>
<linearGradient id="paint97_linear_128_160" x1="415.901" y1="58.6785" x2="415.901" y2="1353.36" gradientUnits="userSpaceOnUse">
<stop stop-color="white"/>
<stop offset="1" stop-color="white" stop-opacity="0"/>
</linearGradient>
<linearGradient id="paint98_linear_128_160" x1="113.82" y1="58.6807" x2="113.82" y2="1353.36" gradientUnits="userSpaceOnUse">
<stop stop-color="white"/>
<stop offset="1" stop-color="white" stop-opacity="0"/>
</linearGradient>
<linearGradient id="paint99_linear_128_160" x1="515.741" y1="58.6817" x2="515.741" y2="1353.36" gradientUnits="userSpaceOnUse">
<stop stop-color="white"/>
<stop offset="1" stop-color="white" stop-opacity="0"/>
</linearGradient>
<linearGradient id="paint100_linear_128_160" x1="984.221" y1="58.6778" x2="984.221" y2="1353.36" gradientUnits="userSpaceOnUse">
<stop stop-color="white"/>
<stop offset="1" stop-color="white" stop-opacity="0"/>
</linearGradient>
<linearGradient id="paint101_linear_128_160" x1="735.901" y1="58.682" x2="735.901" y2="1353.36" gradientUnits="userSpaceOnUse">
<stop stop-color="white"/>
<stop offset="1" stop-color="white" stop-opacity="0"/>
</linearGradient>
<linearGradient id="paint102_linear_128_160" x1="630.941" y1="58.6849" x2="630.941" y2="1353.36" gradientUnits="userSpaceOnUse">
<stop stop-color="white"/>
<stop offset="1" stop-color="white" stop-opacity="0"/>
</linearGradient>
<linearGradient id="paint103_linear_128_160" x1="515.742" y1="58.6798" x2="515.742" y2="1353.36" gradientUnits="userSpaceOnUse">
<stop stop-color="white"/>
<stop offset="1" stop-color="white" stop-opacity="0"/>
</linearGradient>
<linearGradient id="paint104_linear_128_160" x1="279.051" y1="58.6815" x2="279.051" y2="1353.36" gradientUnits="userSpaceOnUse">
<stop stop-color="white"/>
<stop offset="1" stop-color="white" stop-opacity="0"/>
</linearGradient>
<linearGradient id="paint105_linear_128_160" x1="1462.94" y1="58.6819" x2="1462.94" y2="1353.36" gradientUnits="userSpaceOnUse">
<stop stop-color="white"/>
<stop offset="1" stop-color="white" stop-opacity="0"/>
</linearGradient>
<linearGradient id="paint106_linear_128_160" x1="1509.02" y1="58.6825" x2="1509.02" y2="1353.36" gradientUnits="userSpaceOnUse">
<stop stop-color="white"/>
<stop offset="1" stop-color="white" stop-opacity="0"/>
</linearGradient>
<linearGradient id="paint107_linear_128_160" x1="830.621" y1="58.682" x2="830.621" y2="1353.37" gradientUnits="userSpaceOnUse">
<stop stop-color="white"/>
<stop offset="1" stop-color="white" stop-opacity="0"/>
</linearGradient>
<linearGradient id="paint108_linear_128_160" x1="904.861" y1="53.5631" x2="904.861" y2="1348.24" gradientUnits="userSpaceOnUse">
<stop stop-color="white"/>
<stop offset="1" stop-color="white" stop-opacity="0"/>
</linearGradient>
<linearGradient id="paint109_linear_128_160" x1="1219.74" y1="58.6827" x2="1219.74" y2="1353.37" gradientUnits="userSpaceOnUse">
<stop stop-color="white"/>
<stop offset="1" stop-color="white" stop-opacity="0"/>
</linearGradient>
<linearGradient id="paint110_linear_128_160" x1="1009.82" y1="25.4055" x2="1009.82" y2="1320.07" gradientUnits="userSpaceOnUse">
<stop stop-color="white"/>
<stop offset="1" stop-color="white" stop-opacity="0"/>
</linearGradient>
<linearGradient id="paint111_linear_128_160" x1="1473.18" y1="58.6844" x2="1473.18" y2="1353.36" gradientUnits="userSpaceOnUse">
<stop stop-color="white"/>
<stop offset="1" stop-color="white" stop-opacity="0"/>
</linearGradient>
<linearGradient id="paint112_linear_128_160" x1="1204.38" y1="94.5216" x2="1204.38" y2="1389.2" gradientUnits="userSpaceOnUse">
<stop stop-color="white"/>
<stop offset="1" stop-color="white" stop-opacity="0"/>
</linearGradient>
<linearGradient id="paint113_linear_128_160" x1="1360.54" y1="58.6821" x2="1360.54" y2="1353.36" gradientUnits="userSpaceOnUse">
<stop stop-color="white"/>
<stop offset="1" stop-color="white" stop-opacity="0"/>
</linearGradient>
<linearGradient id="paint114_linear_128_160" x1="1775.26" y1="58.6827" x2="1775.26" y2="1353.36" gradientUnits="userSpaceOnUse">
<stop stop-color="white"/>
<stop offset="1" stop-color="white" stop-opacity="0"/>
</linearGradient>
<linearGradient id="paint115_linear_128_160" x1="762.198" y1="42.51" x2="762.198" y2="1337.19" gradientUnits="userSpaceOnUse">
<stop stop-color="white"/>
<stop offset="1" stop-color="white" stop-opacity="0"/>
</linearGradient>
<linearGradient id="paint116_linear_128_160" x1="1333.86" y1="58.6839" x2="1333.86" y2="1353.36" gradientUnits="userSpaceOnUse">
<stop stop-color="white"/>
<stop offset="1" stop-color="white" stop-opacity="0"/>
</linearGradient>
<linearGradient id="paint117_linear_128_160" x1="661.661" y1="58.683" x2="661.661" y2="1353.36" gradientUnits="userSpaceOnUse">
<stop stop-color="white"/>
<stop offset="1" stop-color="white" stop-opacity="0"/>
</linearGradient>
<linearGradient id="paint118_linear_128_160" x1="597.661" y1="58.6837" x2="597.661" y2="1353.36" gradientUnits="userSpaceOnUse">
<stop stop-color="white"/>
<stop offset="1" stop-color="white" stop-opacity="0"/>
</linearGradient>
<linearGradient id="paint119_linear_128_160" x1="1537.18" y1="58.6861" x2="1537.18" y2="1353.35" gradientUnits="userSpaceOnUse">
<stop stop-color="white"/>
<stop offset="1" stop-color="white" stop-opacity="0"/>
</linearGradient>
<linearGradient id="paint120_linear_128_160" x1="1780.38" y1="58.6807" x2="1780.38" y2="1353.36" gradientUnits="userSpaceOnUse">
<stop stop-color="white"/>
<stop offset="1" stop-color="white" stop-opacity="0"/>
</linearGradient>
<linearGradient id="paint121_linear_128_160" x1="1016.79" y1="112.439" x2="1016.79" y2="1407.12" gradientUnits="userSpaceOnUse">
<stop stop-color="white"/>
<stop offset="1" stop-color="white" stop-opacity="0"/>
</linearGradient>
<linearGradient id="paint122_linear_128_160" x1="1608.15" y1="58.6844" x2="1608.15" y2="1353.36" gradientUnits="userSpaceOnUse">
<stop stop-color="white"/>
<stop offset="1" stop-color="white" stop-opacity="0"/>
</linearGradient>
<linearGradient id="paint123_linear_128_160" x1="1588.38" y1="58.6821" x2="1588.38" y2="1353.36" gradientUnits="userSpaceOnUse">
<stop stop-color="white"/>
<stop offset="1" stop-color="white" stop-opacity="0"/>
</linearGradient>
<linearGradient id="paint124_linear_128_160" x1="395.421" y1="58.6834" x2="395.421" y2="1353.36" gradientUnits="userSpaceOnUse">
<stop stop-color="white"/>
<stop offset="1" stop-color="white" stop-opacity="0"/>
</linearGradient>
<linearGradient id="paint125_linear_128_160" x1="193.181" y1="97.0806" x2="193.181" y2="1391.76" gradientUnits="userSpaceOnUse">
<stop stop-color="white"/>
<stop offset="1" stop-color="white" stop-opacity="0"/>
</linearGradient>
</defs>
</svg>
