<svg width="36" height="37" viewBox="0 0 36 37" fill="none" xmlns="http://www.w3.org/2000/svg">
<path fill-rule="evenodd" clip-rule="evenodd" d="M18 3.54285C15.0163 3.54285 12.1548 4.72811 10.045 6.8379C7.93526 8.94768 6.75 11.8092 6.75 14.7928V22.2928C6.75 25.2765 7.93526 28.138 10.045 30.2478C12.1548 32.3576 15.0163 33.5428 18 33.5428C20.9837 33.5428 23.8452 32.3576 25.955 30.2478C28.0647 28.138 29.25 25.2765 29.25 22.2928V14.7928C29.25 11.8092 28.0647 8.94768 25.955 6.8379C23.8452 4.72811 20.9837 3.54285 18 3.54285ZM9 14.7928C9 12.4059 9.94821 10.1167 11.636 8.42889C13.3239 6.74106 15.6131 5.79285 18 5.79285C20.3869 5.79285 22.6761 6.74106 24.364 8.42889C26.0518 10.1167 27 12.4059 27 14.7928V22.2928C27 24.6798 26.0518 26.969 24.364 28.6568C22.6761 30.3446 20.3869 31.2928 18 31.2928C15.6131 31.2928 13.3239 30.3446 11.636 28.6568C9.94821 26.969 9 24.6798 9 22.2928V14.7928Z" fill="white" fill-opacity="0.3"/>
<path d="M17.205 24.9584C17.4159 25.1691 17.7018 25.2874 18 25.2874C18.2981 25.2874 18.584 25.1691 18.795 24.9584L22.17 21.5849C22.3687 21.3716 22.4769 21.0895 22.4717 20.7981C22.4666 20.5066 22.3485 20.2286 22.1424 20.0224C21.9363 19.8163 21.6582 19.6983 21.3668 19.6931C21.0753 19.688 20.7932 19.7962 20.58 19.9949L18 22.5704L15.42 19.9919C15.3161 19.8845 15.192 19.7988 15.0547 19.7399C14.9174 19.681 14.7698 19.6501 14.6204 19.6489C14.471 19.6476 14.3229 19.6762 14.1847 19.7328C14.0464 19.7894 13.9209 19.873 13.8153 19.9787C13.7097 20.0844 13.6262 20.21 13.5697 20.3483C13.5132 20.4866 13.4848 20.6347 13.4862 20.7841C13.4876 20.9335 13.5187 21.0811 13.5777 21.2183C13.6367 21.3556 13.7225 21.4797 13.83 21.5834L17.205 24.9584ZM18 14.1239C17.6817 14.1239 17.3765 13.9974 17.1514 13.7724C16.9264 13.5474 16.8 13.2421 16.8 12.9239C16.8 12.6056 16.9264 12.3004 17.1514 12.0753C17.3765 11.8503 17.6817 11.7239 18 11.7239C18.3182 11.7239 18.6235 11.8503 18.8485 12.0753C19.0735 12.3004 19.2 12.6056 19.2 12.9239C19.2 13.2421 19.0735 13.5474 18.8485 13.7724C18.6235 13.9974 18.3182 14.1239 18 14.1239ZM16.8 17.1479C16.8 17.3055 16.831 17.4615 16.8913 17.6071C16.9516 17.7527 17.04 17.885 17.1514 17.9964C17.2629 18.1078 17.3952 18.1962 17.5408 18.2565C17.6863 18.3168 17.8424 18.3479 18 18.3479C18.1576 18.3479 18.3136 18.3168 18.4592 18.2565C18.6048 18.1962 18.7371 18.1078 18.8485 17.9964C18.9599 17.885 19.0483 17.7527 19.1086 17.6071C19.1689 17.4615 19.2 17.3055 19.2 17.1479C19.2 16.8296 19.0735 16.5244 18.8485 16.2993C18.6235 16.0743 18.3182 15.9479 18 15.9479C17.6817 15.9479 17.3765 16.0743 17.1514 16.2993C16.9264 16.5244 16.8 16.8296 16.8 17.1479Z" fill="#B4D744"/>
</svg>
