<svg width="175" height="176" viewBox="0 0 175 176" fill="none" xmlns="http://www.w3.org/2000/svg">
<path d="M34.0257 95.1235L80.9954 94.3838C80.9954 103.63 74.3383 107.698 72.8589 108.068C52.9561 113.044 33.4709 104.554 21.0813 116.944C11.2805 126.745 13.6845 151.339 13.8694 161.51C32.7312 161.51 51.0383 162.065 58.6201 154.483C64.6854 148.417 65.4621 139.504 65.0923 135.806C61.2089 139.689 43.4566 138.21 38.4638 139.134C34.4695 139.874 29.4027 145.36 27.3686 148.011C27.4302 144.497 28.7739 136.25 33.6558 131.368C39.7582 125.265 55.2915 124.156 63.0582 124.156C69.2715 124.156 77.6052 118.855 80.9954 116.204L80.8105 141.908C80.8105 141.908 80.4406 154.483 69.5303 165.393C58.805 176.118 46.9701 175.749 46.9701 175.749L0.000366211 175.379L0.185284 128.964C0.185284 128.964 0.185968 116.39 10.171 106.034C20.8822 94.9244 34.0257 95.1235 34.0257 95.1235Z" fill="#B4D744"/>
<path d="M34.0253 81.0647L80.995 81.8044C80.995 72.5584 74.3379 68.4902 72.8585 68.1203C52.9557 63.1446 33.4705 71.6338 21.0809 59.2441C11.2801 49.4434 13.6841 24.849 13.869 14.6784C32.7309 14.6784 51.038 14.1236 58.6197 21.7053C64.6851 27.7707 65.4617 36.6839 65.0919 40.3823C61.2086 36.499 43.4562 37.9783 38.4634 37.0537C34.4691 36.314 29.4023 30.8281 27.3682 28.1775C27.4298 31.691 28.7736 39.9385 33.6555 44.8204C39.7578 50.9227 55.2911 52.0323 63.0578 52.0323C69.2711 52.0323 77.6048 57.3333 80.995 59.9838L80.8101 34.2799C80.8101 34.2799 80.4402 21.7054 69.53 10.7951C58.8046 0.0696977 46.9697 0.439528 46.9697 0.439528L0 0.809364L0.184919 47.2243C0.184919 47.2243 0.185604 59.7982 10.1706 70.1544C20.8818 81.2638 34.0253 81.0647 34.0253 81.0647Z" fill="#B4D744"/>
<path d="M140.905 95.1237L93.9356 94.384C93.9356 103.63 100.593 107.698 102.072 108.068C121.975 113.044 141.46 104.555 153.85 116.944C163.651 126.745 161.247 151.339 161.062 161.51C142.2 161.51 123.893 162.065 116.311 154.483C110.246 148.418 109.469 139.505 109.839 135.806C113.722 139.689 131.474 138.21 136.467 139.135C140.462 139.874 145.528 145.36 147.562 148.011C147.501 144.497 146.157 136.25 141.275 131.368C135.173 125.266 119.64 124.156 111.873 124.156C105.66 124.156 97.3258 118.855 93.9356 116.205L94.1205 141.909C94.1205 141.909 94.4904 154.483 105.401 165.393C116.126 176.119 127.961 175.749 127.961 175.749L174.931 175.379L174.746 128.964C174.746 128.964 174.745 116.39 164.76 106.034C154.049 94.9246 140.905 95.1237 140.905 95.1237Z" fill="#B4D744"/>
<path d="M140.906 81.0652L93.936 81.8049C93.936 72.5589 100.593 68.4907 102.072 68.1208C121.975 63.1451 141.46 71.6343 153.85 59.2446C163.651 49.4439 161.247 24.8495 161.062 14.6789C142.2 14.6789 123.893 14.1241 116.311 21.7058C110.246 27.7712 109.469 36.6844 109.839 40.3828C113.722 36.4995 131.475 37.9788 136.468 37.0542C140.462 36.3145 145.529 30.8286 147.563 28.178C147.501 31.6915 146.157 39.939 141.276 44.8209C135.173 50.9232 119.64 52.0328 111.873 52.0328C105.66 52.0328 97.3262 57.3338 93.936 59.9843L94.1209 34.2804C94.1209 34.2804 94.4908 21.7059 105.401 10.7956C116.126 0.0701879 127.961 0.440016 127.961 0.440016L174.931 0.809847L174.746 47.2248C174.746 47.2248 174.745 59.7987 164.76 70.1549C154.049 81.2643 140.906 81.0652 140.906 81.0652Z" fill="#B4D744"/>
</svg>
