<svg width="250" height="250" viewBox="0 0 250 250" fill="none" xmlns="http://www.w3.org/2000/svg">
<path d="M70.0118 132.429L118.343 131.668C118.343 141.182 111.492 145.368 109.97 145.749C89.4907 150.868 69.4409 142.133 56.6922 154.882C46.6075 164.967 49.0811 190.274 49.2714 200.739C68.6798 200.739 87.5174 201.31 95.3188 193.509C101.56 187.267 102.359 178.096 101.979 174.29C97.9827 178.286 79.716 176.764 74.5784 177.715C70.4684 178.477 65.2548 184.121 63.1617 186.849C63.2252 183.233 64.6078 174.747 69.6312 169.724C75.9104 163.445 91.8938 162.303 99.8855 162.303C106.279 162.303 114.854 156.848 118.343 154.121L118.152 180.57C118.152 180.57 117.772 193.509 106.545 204.735C95.5091 215.771 83.3313 215.391 83.3313 215.391L35.0005 215.01L35.1908 167.25C35.1908 167.25 35.1915 154.312 45.4658 143.656C56.4874 132.224 70.0118 132.429 70.0118 132.429Z" fill="url(#paint0_linear_275_2115)"/>
<path d="M70.0113 117.963L118.342 118.724C118.342 109.21 111.492 105.024 109.97 104.644C89.4902 99.5237 69.4404 108.259 56.6918 95.5102C46.607 85.4254 49.0806 60.1184 49.2709 49.653C68.6793 49.653 87.5169 49.0822 95.3183 56.8836C101.559 63.1248 102.359 72.2962 101.978 76.1018C97.9822 72.1059 79.7155 73.6281 74.5779 72.6767C70.4679 71.9156 65.2543 66.2707 63.1612 63.5434C63.2247 67.1587 64.6074 75.6451 69.6307 80.6684C75.9099 86.9476 91.8933 88.0893 99.885 88.0893C106.278 88.0893 114.854 93.544 118.342 96.2713L118.152 69.8226C118.152 69.8226 117.771 56.8836 106.545 45.6572C95.5086 34.621 83.3308 35.0016 83.3308 35.0016L35 35.3821L35.1903 83.1421C35.1903 83.1421 35.191 96.0803 45.4653 106.737C56.4869 118.168 70.0113 117.963 70.0113 117.963Z" fill="url(#paint1_linear_275_2115)"/>
<path d="M179.988 132.43L131.657 131.668C131.657 141.182 138.508 145.369 140.03 145.749C160.509 150.869 180.559 142.134 193.308 154.882C203.393 164.967 200.919 190.274 200.729 200.74C181.32 200.74 162.483 201.31 154.681 193.509C148.44 187.268 147.641 178.096 148.021 174.291C152.017 178.287 170.284 176.764 175.422 177.716C179.532 178.477 184.745 184.122 186.838 186.849C186.775 183.234 185.392 174.748 180.369 169.724C174.09 163.445 158.106 162.303 150.114 162.303C143.721 162.303 135.146 156.849 131.657 154.121L131.848 180.57C131.848 180.57 132.228 193.509 143.455 204.735C154.491 215.772 166.669 215.391 166.669 215.391L215 215.01L214.809 167.251C214.809 167.251 214.809 154.312 204.534 143.656C193.513 132.225 179.988 132.43 179.988 132.43Z" fill="url(#paint2_linear_275_2115)"/>
<path d="M179.989 117.964L131.658 118.725C131.658 109.211 138.508 105.025 140.03 104.644C160.51 99.5241 180.56 108.259 193.308 95.5106C203.393 85.4258 200.919 60.1188 200.729 49.6535C181.321 49.6535 162.483 49.0826 154.682 56.8841C148.441 63.1252 147.641 72.2966 148.022 76.1022C152.018 72.1063 170.285 73.6286 175.422 72.6772C179.532 71.9161 184.746 66.2711 186.839 63.5438C186.775 67.1591 185.393 75.6455 180.369 80.6689C174.09 86.9481 158.107 88.0898 150.115 88.0898C143.722 88.0898 135.146 93.5444 131.658 96.2717L131.848 69.823C131.848 69.823 132.229 56.8841 143.455 45.6576C154.491 34.6215 166.669 35.002 166.669 35.002L215 35.3826L214.81 83.1425C214.81 83.1425 214.809 96.0808 204.535 106.737C193.513 118.168 179.989 117.964 179.989 117.964Z" fill="url(#paint3_linear_275_2115)"/>
<defs>
<linearGradient id="paint0_linear_275_2115" x1="35.0933" y1="215.103" x2="118.435" y2="131.761" gradientUnits="userSpaceOnUse">
<stop stop-color="#B4D744"/>
<stop offset="1" stop-color="#87A922"/>
</linearGradient>
<linearGradient id="paint1_linear_275_2115" x1="35" y1="76.8621" x2="118.342" y2="76.8621" gradientUnits="userSpaceOnUse">
<stop stop-color="#B4D744"/>
<stop offset="1" stop-color="#87A922"/>
</linearGradient>
<linearGradient id="paint2_linear_275_2115" x1="131.657" y1="173.531" x2="215" y2="173.531" gradientUnits="userSpaceOnUse">
<stop stop-color="#B4D744"/>
<stop offset="1" stop-color="#87A922"/>
</linearGradient>
<linearGradient id="paint3_linear_275_2115" x1="131.658" y1="76.8625" x2="215" y2="76.8625" gradientUnits="userSpaceOnUse">
<stop stop-color="#B4D744"/>
<stop offset="1" stop-color="#87A922"/>
</linearGradient>
</defs>
</svg>
