<svg width="343" height="44" viewBox="0 0 343 44" fill="none" xmlns="http://www.w3.org/2000/svg">
<path d="M18.7589 29.3857V20.7795H26.8945V30.1925C26.8945 37.1851 22.8603 43.438 13.5145 43.438C3.83246 43.438 0 37.2523 0 30.1253V0.541382H8.60623V9.48379H26.8945V15.6695H8.60623V29.2512C8.60623 33.4199 10.0854 35.8404 13.6489 35.8404C17.1452 35.8404 18.7589 33.4871 18.7589 29.3857Z" fill="#B4D744"/>
<path d="M38.7364 22.7965H52.2509C52.1164 17.8883 48.8891 15.535 45.46 15.535C41.9638 15.535 39.0726 18.2245 38.7364 22.7965ZM61.2605 28.3099H38.4675C38.7364 33.2854 41.5603 36.5127 45.8635 36.5127C48.6874 36.5127 51.1751 35.1008 51.7802 32.8147H60.7899C58.7728 39.6056 53.3267 43.438 46.2669 43.438C35.2401 43.438 29.7268 37.3868 29.7268 25.4188C29.7268 15.1989 35.5763 8.60972 45.729 8.60972C55.8816 8.60972 61.2605 15.1989 61.2605 28.3099Z" fill="#B4D744"/>
<path d="M73.0221 42.564H64.2814V9.48379H72.4842V13.4507C75.3754 9.01314 78.7372 8.60972 82.3007 8.60972H83.4437V17.5521C82.6369 17.4177 81.8301 17.3504 81.0232 17.3504C75.6443 17.3504 73.0221 20.0399 73.0221 25.3515V42.564Z" fill="#B4D744"/>
<path d="M94.6244 42.564H85.8837V9.48379H94.0865V13.4507C96.9776 9.01314 100.339 8.60972 103.903 8.60972H105.046V17.5521C104.239 17.4177 103.432 17.3504 102.625 17.3504C97.2466 17.3504 94.6244 20.0399 94.6244 25.3515V42.564Z" fill="#B4D744"/>
<path d="M125.881 29.9908L125.948 26.3601C125.074 27.2341 123.528 27.7048 120.3 28.3099C115.325 29.2512 113.711 30.6632 113.711 33.4871C113.711 35.9748 115.19 37.1851 117.947 37.1851C122.452 37.1851 125.814 33.8905 125.881 29.9908ZM134.689 42.564H126.553C126.284 41.7571 126.082 40.6141 126.015 39.6056C123.931 41.8916 120.435 43.438 115.997 43.438C108.467 43.438 104.97 39.7401 104.97 34.3612C104.97 24.8136 111.358 23.7379 120.166 22.5276C124.536 21.9225 125.746 21.0484 125.746 18.7624C125.746 16.6108 123.595 15.3333 120.166 15.3333C116.199 15.3333 114.585 17.2832 114.182 20.2416H106.046C106.181 13.3835 109.946 8.60972 120.569 8.60972C131.058 8.60972 134.689 13.3162 134.689 21.6535V42.564Z" fill="#B4D744"/>
<path d="M166.85 19.502H158.445C157.974 16.2746 156.226 15.1316 152.259 15.1316C148.965 15.1316 147.082 15.9385 147.082 17.8883C147.082 19.8382 148.898 20.645 152.461 21.6535C156.226 22.7293 159.79 23.4689 162.345 24.4774C165.841 25.8894 167.791 28.1754 167.791 32.4785C167.791 39.3366 162.748 43.438 153.335 43.438C143.183 43.438 137.535 38.6643 137.4 31.9407H146.41C146.41 35.0335 149.032 36.8489 153.268 36.8489C156.361 36.8489 159.117 35.9076 159.117 33.4199C159.117 31.0666 156.63 30.327 153.806 29.6546C148.225 28.3099 145.132 27.3686 142.779 25.8894C139.686 23.9396 138.61 21.3846 138.61 18.4262C138.61 12.8456 142.443 8.60972 152.528 8.60972C162.076 8.60972 166.379 12.3749 166.85 19.502Z" fill="#B4D744"/>
<path d="M178.527 22.7965H192.042C191.907 17.8883 188.68 15.535 185.251 15.535C181.755 15.535 178.863 18.2245 178.527 22.7965ZM201.051 28.3099H178.258C178.527 33.2854 181.351 36.5127 185.654 36.5127C188.478 36.5127 190.966 35.1008 191.571 32.8147H200.581C198.564 39.6056 193.117 43.438 186.058 43.438C175.031 43.438 169.518 37.3868 169.518 25.4188C169.518 15.1989 175.367 8.60972 185.52 8.60972C195.672 8.60972 201.051 15.1989 201.051 28.3099Z" fill="#B4D744"/>
<path d="M234.06 42.564H225.252V22.5276C225.252 17.4177 223.772 16.0057 219.604 16.0057C215.032 16.0057 212.813 18.5607 212.813 23.6034V42.564H204.072V9.48379H212.409V14.3248C214.427 10.6268 217.788 8.60972 223.1 8.60972C229.42 8.60972 234.06 12.4422 234.06 19.6364V42.564Z" fill="#B4D744"/>
<path d="M266.194 19.502H257.789C257.319 16.2746 255.57 15.1316 251.603 15.1316C248.309 15.1316 246.426 15.9385 246.426 17.8883C246.426 19.8382 248.242 20.645 251.805 21.6535C255.57 22.7293 259.134 23.4689 261.689 24.4774C265.185 25.8894 267.135 28.1754 267.135 32.4785C267.135 39.3366 262.092 43.438 252.679 43.438C242.527 43.438 236.879 38.6643 236.744 31.9407H245.754C245.754 35.0335 248.376 36.8489 252.612 36.8489C255.705 36.8489 258.462 35.9076 258.462 33.4199C258.462 31.0666 255.974 30.327 253.15 29.6546C247.569 28.3099 244.476 27.3686 242.123 25.8894C239.03 23.9396 237.955 21.3846 237.955 18.4262C237.955 12.8456 241.787 8.60972 251.872 8.60972C261.42 8.60972 265.723 12.3749 266.194 19.502Z" fill="#B4D744"/>
<path d="M277.871 22.7965H291.386C291.251 17.8883 288.024 15.535 284.595 15.535C281.099 15.535 278.207 18.2245 277.871 22.7965ZM300.395 28.3099H277.602C277.871 33.2854 280.695 36.5127 284.998 36.5127C287.822 36.5127 290.31 35.1008 290.915 32.8147H299.925C297.908 39.6056 292.461 43.438 285.402 43.438C274.375 43.438 268.862 37.3868 268.862 25.4188C268.862 15.1989 274.711 8.60972 284.864 8.60972C295.016 8.60972 300.395 15.1989 300.395 28.3099Z" fill="#B4D744"/>
<path d="M307.754 42.8619C306.932 42.8619 306.228 42.573 305.641 41.9952C305.055 41.4174 304.766 40.7132 304.775 39.8827C304.766 39.0702 305.055 38.375 305.641 37.7972C306.228 37.2194 306.932 36.9306 307.754 36.9306C308.548 36.9306 309.239 37.2194 309.826 37.7972C310.422 38.375 310.724 39.0702 310.733 39.8827C310.724 40.4334 310.58 40.9344 310.3 41.3858C310.029 41.8372 309.668 42.1983 309.216 42.4692C308.774 42.731 308.287 42.8619 307.754 42.8619Z" fill="#B4D744"/>
<path d="M321.78 42.9838C320.462 42.9838 319.275 42.749 318.218 42.2796C317.171 41.8011 316.341 41.0969 315.727 40.1671C315.122 39.2372 314.819 38.0906 314.819 36.7274C314.819 35.5538 315.036 34.5833 315.469 33.8159C315.903 33.0485 316.494 32.4346 317.243 31.9742C317.993 31.5138 318.837 31.1662 319.776 30.9315C320.724 30.6877 321.703 30.5117 322.714 30.4034C323.933 30.277 324.922 30.1641 325.68 30.0648C326.438 29.9565 326.989 29.794 327.332 29.5773C327.684 29.3516 327.86 29.004 327.86 28.5346V28.4533C327.86 27.4332 327.558 26.6432 326.953 26.0835C326.348 25.5238 325.477 25.2439 324.339 25.2439C323.139 25.2439 322.186 25.5057 321.482 26.0293C320.787 26.553 320.317 27.1714 320.074 27.8846L315.496 27.2346C315.858 25.9707 316.453 24.9144 317.284 24.0658C318.115 23.2081 319.13 22.5671 320.331 22.1428C321.532 21.7095 322.859 21.4928 324.312 21.4928C325.314 21.4928 326.312 21.6102 327.305 21.8449C328.298 22.0796 329.205 22.4678 330.027 23.0095C330.848 23.5421 331.507 24.2689 332.004 25.1897C332.51 26.1106 332.762 27.2616 332.762 28.6429V42.564H328.05V39.7066H327.887C327.589 40.2844 327.17 40.8261 326.628 41.3317C326.095 41.8282 325.423 42.2299 324.61 42.5369C323.807 42.8348 322.863 42.9838 321.78 42.9838ZM323.053 39.3816C324.037 39.3816 324.89 39.1875 325.612 38.7993C326.334 38.4021 326.89 37.8785 327.278 37.2285C327.675 36.5785 327.874 35.8698 327.874 35.1024V32.6513C327.72 32.7777 327.458 32.8951 327.088 33.0034C326.727 33.1117 326.321 33.2065 325.87 33.2878C325.418 33.369 324.971 33.4413 324.529 33.5045C324.087 33.5676 323.703 33.6218 323.378 33.667C322.647 33.7663 321.992 33.9288 321.414 34.1545C320.836 34.3802 320.381 34.6961 320.047 35.1024C319.713 35.4996 319.545 36.0142 319.545 36.6462C319.545 37.549 319.875 38.2306 320.534 38.691C321.193 39.1514 322.033 39.3816 323.053 39.3816Z" fill="#B4D744"/>
<path d="M337.692 42.564V21.7636H342.594V42.564H337.692ZM340.156 18.8115C339.38 18.8115 338.712 18.5542 338.152 18.0396C337.592 17.516 337.312 16.8886 337.312 16.1573C337.312 15.417 337.592 14.7896 338.152 14.275C338.712 13.7514 339.38 13.4896 340.156 13.4896C340.942 13.4896 341.61 13.7514 342.16 14.275C342.72 14.7896 343 15.417 343 16.1573C343 16.8886 342.72 17.516 342.16 18.0396C341.61 18.5542 340.942 18.8115 340.156 18.8115Z" fill="#B4D744"/>
</svg>
