<svg width="107" height="48" viewBox="0 0 107 48" fill="none" xmlns="http://www.w3.org/2000/svg">
<path d="M48.0614 23.1769V19.3741H51.6562V23.5335C51.6562 26.6232 49.8737 29.3862 45.7441 29.3862C41.4659 29.3862 39.7724 26.653 39.7724 23.5037V10.4316H43.5753V14.3829H51.6562V17.1162H43.5753V23.1175C43.5753 24.9595 44.2289 26.0291 45.8035 26.0291C47.3484 26.0291 48.0614 24.9892 48.0614 23.1769ZM58.3743 20.2654H64.3459C64.2865 18.0966 62.8604 17.0568 61.3452 17.0568C59.8003 17.0568 58.5228 18.2452 58.3743 20.2654ZM68.327 22.7016H58.2555C58.3743 24.9001 59.6221 26.3261 61.5235 26.3261C62.7713 26.3261 63.8705 25.7022 64.1379 24.6921H68.119C67.2277 27.6928 64.8212 29.3862 61.7018 29.3862C56.8294 29.3862 54.3932 26.7124 54.3932 21.4241C54.3932 16.9082 56.9779 13.9967 61.4641 13.9967C65.9502 13.9967 68.327 16.9082 68.327 22.7016ZM75.0095 29H71.1473V14.3829H74.7718V16.1358C76.0493 14.175 77.5348 13.9967 79.1094 13.9967H79.6145V17.9481C79.258 17.8887 78.9014 17.8589 78.5449 17.8589C76.1682 17.8589 75.0095 19.0473 75.0095 21.3944V29ZM86.0403 29H82.1781V14.3829H85.8026V16.1358C87.0801 14.175 88.5656 13.9967 90.1402 13.9967H90.6453V17.9481C90.2888 17.8887 89.9323 17.8589 89.5757 17.8589C87.199 17.8589 86.0403 19.0473 86.0403 21.3944V29ZM101.337 23.4443L101.367 21.84C100.98 22.2262 100.297 22.4342 98.8711 22.7016C96.6726 23.1175 95.9596 23.7414 95.9596 24.9892C95.9596 26.0885 96.6132 26.6232 97.8313 26.6232C99.8218 26.6232 101.307 25.1675 101.337 23.4443ZM105.229 29H101.634C101.515 28.6435 101.426 28.1384 101.396 27.6928C100.475 28.7029 98.9305 29.3862 96.9697 29.3862C93.6422 29.3862 92.0973 27.7522 92.0973 25.3754C92.0973 21.1567 94.9197 20.6813 98.8117 20.1466C100.743 19.8792 101.278 19.493 101.278 18.4828C101.278 17.5321 100.327 16.9677 98.8117 16.9677C97.0588 16.9677 96.3458 17.8292 96.1675 19.1365H92.5727C92.6321 16.1061 94.2958 13.9967 98.9899 13.9967C103.625 13.9967 105.229 16.0764 105.229 19.7604V29Z" fill="white"/>
<path d="M49.2884 35.8727H46.691C46.5455 34.8752 46.0053 34.522 44.7793 34.522C43.7611 34.522 43.1793 34.7713 43.1793 35.3739C43.1793 35.9765 43.7403 36.2259 44.8416 36.5376C46.0053 36.8701 47.1066 37.0986 47.8962 37.4103C48.9767 37.8467 49.5793 38.5532 49.5793 39.8831C49.5793 42.0026 48.0209 43.2701 45.1117 43.2701C41.974 43.2701 40.2286 41.7948 40.187 39.7168H42.9715C42.9715 40.6727 43.7819 41.2337 45.091 41.2337C46.0468 41.2337 46.8988 40.9428 46.8988 40.174C46.8988 39.4467 46.1299 39.2181 45.2572 39.0103C43.5325 38.5948 42.5767 38.3038 41.8494 37.8467C40.8935 37.2441 40.561 36.4545 40.561 35.5402C40.561 33.8155 41.7455 32.5064 44.8624 32.5064C47.8131 32.5064 49.143 33.67 49.2884 35.8727ZM53.9364 36.8908H58.113C58.0715 35.3739 57.074 34.6467 56.0143 34.6467C54.9338 34.6467 54.0402 35.4778 53.9364 36.8908ZM60.8975 38.5948H53.8532C53.9364 40.1324 54.8091 41.1298 56.139 41.1298C57.0117 41.1298 57.7805 40.6935 57.9676 39.987H60.752C60.1286 42.0857 58.4455 43.2701 56.2636 43.2701C52.8558 43.2701 51.1519 41.4 51.1519 37.7012C51.1519 34.5428 52.9597 32.5064 56.0974 32.5064C59.2351 32.5064 60.8975 34.5428 60.8975 38.5948ZM72.1377 43H69.4156V36.8077C69.4156 35.2285 68.9584 34.7921 67.6701 34.7921C66.2571 34.7921 65.5714 35.5817 65.5714 37.1402V43H62.87V32.7765H65.4467V34.2726C66.0701 33.1298 67.1091 32.5064 68.7506 32.5064C70.7039 32.5064 72.1377 33.6908 72.1377 35.9142V43ZM83.1078 35.8727H80.5103C80.3649 34.8752 79.8246 34.522 78.5986 34.522C77.5804 34.522 76.9986 34.7713 76.9986 35.3739C76.9986 35.9765 77.5597 36.2259 78.661 36.5376C79.8246 36.8701 80.9259 37.0986 81.7155 37.4103C82.7961 37.8467 83.3987 38.5532 83.3987 39.8831C83.3987 42.0026 81.8402 43.2701 78.9311 43.2701C75.7934 43.2701 74.0479 41.7948 74.0064 39.7168H76.7908C76.7908 40.6727 77.6012 41.2337 78.9103 41.2337C79.8662 41.2337 80.7181 40.9428 80.7181 40.174C80.7181 39.4467 79.9493 39.2181 79.0766 39.0103C77.3519 38.5948 76.396 38.3038 75.6687 37.8467C74.7129 37.2441 74.3804 36.4545 74.3804 35.5402C74.3804 33.8155 75.5648 32.5064 78.6817 32.5064C81.6324 32.5064 82.9623 33.67 83.1078 35.8727ZM87.7557 36.8908H91.9324C91.8908 35.3739 90.8934 34.6467 89.8337 34.6467C88.7531 34.6467 87.8596 35.4778 87.7557 36.8908ZM94.7168 38.5948H87.6726C87.7557 40.1324 88.6284 41.1298 89.9583 41.1298C90.8311 41.1298 91.5999 40.6935 91.7869 39.987H94.5714C93.948 42.0857 92.2648 43.2701 90.083 43.2701C86.6752 43.2701 84.9713 41.4 84.9713 37.7012C84.9713 34.5428 86.7791 32.5064 89.9168 32.5064C93.0545 32.5064 94.7168 34.5428 94.7168 38.5948Z" fill="white"/>
<path d="M96.6831 43H95.239V41.5974H96.6831V43ZM100.824 41.0571L100.834 40.4961C100.699 40.6311 100.46 40.7039 99.9613 40.7974C99.1925 40.9428 98.9431 41.161 98.9431 41.5974C98.9431 41.9818 99.1717 42.1688 99.5977 42.1688C100.294 42.1688 100.813 41.6597 100.824 41.0571ZM102.185 43H100.928C100.886 42.8753 100.855 42.6987 100.844 42.5429C100.522 42.8961 99.9821 43.1351 99.2964 43.1351C98.1327 43.1351 97.5925 42.5636 97.5925 41.7325C97.5925 40.2571 98.5795 40.0909 99.9406 39.9039C100.616 39.8104 100.803 39.6753 100.803 39.322C100.803 38.9896 100.47 38.7922 99.9406 38.7922C99.3276 38.7922 99.0782 39.0935 99.0159 39.5506H97.7587C97.7795 38.4909 98.3613 37.7532 100.003 37.7532C101.624 37.7532 102.185 38.4805 102.185 39.7688V43ZM104.682 43H103.331V37.8883H104.682V43ZM104.682 37.2753H103.331V36.0181H104.682V37.2753Z" fill="white"/>
<path d="M6.34272 27.9703L15.0983 27.8324C15.0983 29.556 13.8574 30.3143 13.5816 30.3833C9.87153 31.3108 6.23931 29.7283 3.92975 32.0379C2.10279 33.8648 2.55091 38.4495 2.58538 40.3454C6.10142 40.3454 9.51405 40.4488 10.9274 39.0355C12.058 37.9048 12.2028 36.2433 12.1338 35.5539C11.4099 36.2778 8.10074 36.002 7.17002 36.1744C6.42545 36.3123 5.48094 37.3349 5.10176 37.829C5.11325 37.1741 5.36374 35.6367 6.27378 34.7266C7.41132 33.5891 10.3069 33.3823 11.7547 33.3823C12.9129 33.3823 14.4664 32.3941 15.0983 31.9L15.0639 36.6915C15.0639 36.6915 14.9949 39.0355 12.9611 41.0693C10.9618 43.0686 8.75568 42.9997 8.75568 42.9997L6.10352e-05 42.9307L0.0345315 34.2785C0.0345315 34.2785 0.034659 31.9346 1.89596 30.0041C3.89264 27.9332 6.34272 27.9703 6.34272 27.9703Z" fill="url(#paint0_linear_46_60)"/>
<path d="M6.34266 25.3496L15.0983 25.4875C15.0983 23.764 13.8573 23.0056 13.5816 22.9367C9.87147 22.0091 6.23924 23.5916 3.92969 21.2821C2.10273 19.4551 2.55085 14.8705 2.58532 12.9746C6.10136 12.9746 9.51398 12.8711 10.9273 14.2845C12.0579 15.4151 12.2027 17.0766 12.1338 17.766C11.4099 17.0421 8.10068 17.3179 7.16996 17.1455C6.42539 17.0077 5.48088 15.985 5.1017 15.4909C5.11319 16.1459 5.36368 17.6833 6.27371 18.5933C7.41126 19.7309 10.3068 19.9377 11.7546 19.9377C12.9128 19.9377 14.4663 20.9259 15.0983 21.4199L15.0638 16.6285C15.0638 16.6285 14.9949 14.2845 12.9611 12.2507C10.9618 10.2514 8.75562 10.3203 8.75562 10.3203L0 10.3892L0.0344708 19.0414C0.0344708 19.0414 0.0345984 21.3853 1.8959 23.3158C3.89257 25.3867 6.34266 25.3496 6.34266 25.3496Z" fill="url(#paint1_linear_46_60)"/>
<path d="M26.2662 27.9704L17.5105 27.8325C17.5105 29.556 18.7515 30.3144 19.0273 30.3833C22.7373 31.3109 26.3696 29.7284 28.6791 32.0379C30.5061 33.8649 30.058 38.4495 30.0235 40.3454C26.5075 40.3454 23.0948 40.4489 21.6815 39.0356C20.5509 37.9049 20.4061 36.2434 20.475 35.554C21.1989 36.2779 24.5081 36.0021 25.4389 36.1745C26.1834 36.3123 27.1279 37.335 27.5071 37.8291C27.4956 37.1741 27.2451 35.6367 26.3351 34.7267C25.1976 33.5891 22.302 33.3823 20.8542 33.3823C19.696 33.3823 18.1425 32.3941 17.5105 31.9001L17.545 36.6915C17.545 36.6915 17.6139 39.0355 19.6477 41.0693C21.647 43.0687 23.8532 42.9997 23.8532 42.9997L32.6088 42.9308L32.5743 34.2786C32.5743 34.2786 32.5742 31.9347 30.7129 30.0042C28.7162 27.9333 26.2662 27.9704 26.2662 27.9704Z" fill="url(#paint2_linear_46_60)"/>
<path d="M26.2662 25.3497L17.5106 25.4876C17.5106 23.764 18.7515 23.0057 19.0273 22.9367C22.7374 22.0092 26.3696 23.5917 28.6792 21.2821C30.5061 19.4552 30.058 14.8705 30.0235 12.9746C26.5075 12.9746 23.0949 12.8712 21.6816 14.2845C20.5509 15.4152 20.4062 17.0767 20.4751 17.7661C21.199 17.0422 24.5082 17.318 25.4389 17.1456C26.1835 17.0077 27.128 15.9851 27.5072 15.491C27.4957 16.146 27.2452 17.6834 26.3352 18.5934C25.1976 19.7309 22.3021 19.9378 20.8543 19.9378C19.696 19.9378 18.1426 20.9259 17.5106 21.42L17.5451 16.6286C17.5451 16.6286 17.614 14.2845 19.6478 12.2507C21.6471 10.2514 23.8532 10.3204 23.8532 10.3204L32.6089 10.3893L32.5744 19.0415C32.5744 19.0415 32.5743 21.3854 30.713 23.3159C28.7163 25.3868 26.2662 25.3497 26.2662 25.3497Z" fill="url(#paint3_linear_46_60)"/>
<defs>
<linearGradient id="paint0_linear_46_60" x1="0.0168724" y1="42.9475" x2="15.1152" y2="27.8492" gradientUnits="userSpaceOnUse">
<stop stop-color="#B4D744"/>
<stop offset="1" stop-color="#87A922"/>
</linearGradient>
<linearGradient id="paint1_linear_46_60" x1="0" y1="17.9038" x2="15.0983" y2="17.9038" gradientUnits="userSpaceOnUse">
<stop stop-color="#B4D744"/>
<stop offset="1" stop-color="#87A922"/>
</linearGradient>
<linearGradient id="paint2_linear_46_60" x1="17.5105" y1="35.4162" x2="32.6088" y2="35.4162" gradientUnits="userSpaceOnUse">
<stop stop-color="#B4D744"/>
<stop offset="1" stop-color="#87A922"/>
</linearGradient>
<linearGradient id="paint3_linear_46_60" x1="17.5106" y1="17.9038" x2="32.6089" y2="17.9038" gradientUnits="userSpaceOnUse">
<stop stop-color="#B4D744"/>
<stop offset="1" stop-color="#87A922"/>
</linearGradient>
</defs>
</svg>
