<svg width="320" height="387" viewBox="0 0 320 387" fill="none" xmlns="http://www.w3.org/2000/svg">
<path d="M43.1677 263.61V245.494H60.2932V265.309C60.2932 280.028 51.8012 293.191 32.1281 293.191C11.7473 293.191 3.67987 280.17 3.67987 265.167V202.892H21.7961V221.716H60.2932V234.737H21.7961V263.327C21.7961 272.102 24.9099 277.197 32.4111 277.197C39.7709 277.197 43.1677 272.244 43.1677 263.61ZM92.2974 249.74H120.746C120.463 239.408 113.669 234.454 106.451 234.454C99.091 234.454 93.0051 240.116 92.2974 249.74ZM139.711 261.346H91.7313C92.2974 271.819 98.2418 278.613 107.3 278.613C113.244 278.613 118.481 275.641 119.755 270.828H138.72C134.474 285.123 123.01 293.191 108.149 293.191C84.9377 293.191 73.332 280.453 73.332 255.26C73.332 233.747 85.6454 219.876 107.017 219.876C128.388 219.876 139.711 233.747 139.711 261.346ZM171.546 291.351H153.147V221.716H170.414V230.067C176.5 220.726 183.577 219.876 191.078 219.876H193.484V238.7C191.785 238.417 190.087 238.276 188.389 238.276C177.066 238.276 171.546 243.937 171.546 255.118V291.351ZM224.096 291.351H205.697V221.716H222.964V230.067C229.05 220.726 236.126 219.876 243.628 219.876H246.034V238.7C244.335 238.417 242.637 238.276 240.938 238.276C229.616 238.276 224.096 243.937 224.096 255.118V291.351ZM296.968 264.884L297.109 257.241C295.27 259.081 292.014 260.072 285.221 261.346C274.747 263.327 271.35 266.299 271.35 272.244C271.35 277.481 274.464 280.028 280.267 280.028C289.75 280.028 296.826 273.093 296.968 264.884ZM315.509 291.351H298.383C297.817 289.652 297.393 287.246 297.251 285.123C292.863 289.935 285.504 293.191 276.163 293.191C260.311 293.191 252.951 285.406 252.951 274.084C252.951 253.986 266.397 251.721 284.938 249.174C294.137 247.9 296.685 246.06 296.685 241.248C296.685 236.719 292.156 234.03 284.938 234.03C276.587 234.03 273.19 238.134 272.341 244.362H255.216C255.499 229.925 263.425 219.876 285.787 219.876C307.866 219.876 315.509 229.784 315.509 247.334V291.351Z" fill="white"/>
<path d="M51.1092 329.587H38.7353C38.0423 324.836 35.4685 323.153 29.6281 323.153C24.7775 323.153 22.0057 324.341 22.0057 327.212C22.0057 330.082 24.6785 331.27 29.925 332.755C35.4685 334.339 40.7151 335.428 44.4768 336.913C49.6243 338.991 52.4951 342.357 52.4951 348.693C52.4951 358.79 45.0707 364.828 31.2119 364.828C16.2642 364.828 7.94892 357.8 7.75094 347.901H21.0158C21.0158 352.454 24.8765 355.127 31.1129 355.127C35.6665 355.127 39.7252 353.741 39.7252 350.079C39.7252 346.614 36.0625 345.525 31.9049 344.535C23.6886 342.555 19.135 341.169 15.6703 338.991C11.1166 336.121 9.53279 332.359 9.53279 328.003C9.53279 319.787 15.1753 313.551 30.024 313.551C44.0808 313.551 50.4163 319.094 51.1092 329.587ZM73.2516 334.438H93.1489C92.9509 327.212 88.1993 323.747 83.1507 323.747C78.0032 323.747 73.7465 327.706 73.2516 334.438ZM106.414 342.555H72.8556C73.2516 349.881 77.4092 354.632 83.7447 354.632C87.9023 354.632 91.565 352.553 92.4559 349.188H105.721C102.751 359.186 94.7327 364.828 84.3386 364.828C68.104 364.828 59.9867 355.919 59.9867 338.299C59.9867 323.252 68.599 313.551 83.5467 313.551C98.4944 313.551 106.414 323.252 106.414 342.555ZM159.961 363.541H146.993V334.042C146.993 326.519 144.815 324.44 138.678 324.44C131.947 324.44 128.68 328.201 128.68 335.626V363.541H115.811V314.838H128.086V321.965C131.056 316.52 136.005 313.551 143.826 313.551C153.131 313.551 159.961 319.193 159.961 329.785V363.541ZM212.222 329.587H199.848C199.155 324.836 196.581 323.153 190.741 323.153C185.89 323.153 183.118 324.341 183.118 327.212C183.118 330.082 185.791 331.27 191.038 332.755C196.581 334.339 201.828 335.428 205.589 336.913C210.737 338.991 213.608 342.357 213.608 348.693C213.608 358.79 206.183 364.828 192.324 364.828C177.377 364.828 169.061 357.8 168.863 347.901H182.128C182.128 352.454 185.989 355.127 192.225 355.127C196.779 355.127 200.838 353.741 200.838 350.079C200.838 346.614 197.175 345.525 193.017 344.535C184.801 342.555 180.247 341.169 176.783 338.991C172.229 336.121 170.645 332.359 170.645 328.003C170.645 319.787 176.288 313.551 191.136 313.551C205.193 313.551 211.529 319.094 212.222 329.587ZM234.364 334.438H254.261C254.063 327.212 249.312 323.747 244.263 323.747C239.116 323.747 234.859 327.706 234.364 334.438ZM267.526 342.555H233.968C234.364 349.881 238.522 354.632 244.857 354.632C249.015 354.632 252.677 352.553 253.568 349.188H266.833C263.864 359.186 255.845 364.828 245.451 364.828C229.216 364.828 221.099 355.919 221.099 338.299C221.099 323.252 229.711 313.551 244.659 313.551C259.607 313.551 267.526 323.252 267.526 342.555Z" fill="white"/>
<path d="M278.772 364.269H271.892V357.587H278.772V364.269ZM298.497 355.013L298.546 352.34C297.903 352.984 296.764 353.33 294.389 353.776C290.726 354.469 289.538 355.508 289.538 357.587C289.538 359.418 290.627 360.309 292.656 360.309C295.973 360.309 298.447 357.884 298.497 355.013ZM304.981 364.269H298.992C298.794 363.675 298.645 362.833 298.596 362.091C297.061 363.774 294.488 364.912 291.221 364.912C285.677 364.912 283.104 362.19 283.104 358.23C283.104 351.202 287.806 350.41 294.29 349.519C297.507 349.074 298.398 348.43 298.398 346.747C298.398 345.164 296.814 344.223 294.29 344.223C291.369 344.223 290.182 345.658 289.885 347.836H283.896C283.995 342.788 286.766 339.274 294.587 339.274C302.308 339.274 304.981 342.738 304.981 348.876V364.269ZM316.876 364.269H310.442V339.917H316.876V364.269ZM316.876 336.997H310.442V331.008H316.876V336.997Z" fill="white"/>
<path d="M106.056 94.6854L153.026 93.9457C153.026 103.192 146.369 107.26 144.889 107.63C124.986 112.606 105.501 104.116 93.1116 116.506C83.3109 126.307 85.7148 150.901 85.8997 161.072C104.762 161.072 123.069 161.627 130.65 154.045C136.716 147.979 137.492 139.066 137.123 135.368C133.239 139.251 115.487 137.772 110.494 138.696C106.5 139.436 101.433 144.922 99.3989 147.573C99.4606 144.059 100.804 135.812 105.686 130.93C111.789 124.827 127.322 123.718 135.089 123.718C141.302 123.718 149.636 118.417 153.026 115.766L152.841 141.47C152.841 141.47 152.471 154.045 141.561 164.955C130.835 175.68 119 175.311 119 175.311L72.0307 174.941L72.2156 128.526C72.2156 128.526 72.2163 115.952 82.2013 105.596C92.9125 94.4863 106.056 94.6854 106.056 94.6854Z" fill="url(#paint0_linear_2_519)"/>
<path d="M106.056 80.6267L153.025 81.3664C153.025 72.1204 146.368 68.0522 144.889 67.6823C124.986 62.7066 105.501 71.1958 93.1113 58.8062C83.3105 49.0054 85.7145 24.411 85.8994 14.2404C104.761 14.2404 123.068 13.6856 130.65 21.2674C136.715 27.3327 137.492 36.2459 137.122 39.9443C133.239 36.061 115.487 37.5403 110.494 36.6157C106.499 35.8761 101.433 30.3901 99.3986 27.7396C99.4602 31.253 100.804 39.5005 105.686 44.3824C111.788 50.4847 127.321 51.5943 135.088 51.5943C141.301 51.5943 149.635 56.8953 153.025 59.5458L152.84 33.8419C152.84 33.8419 152.471 21.2674 141.56 10.3571C130.835 -0.368291 119 0.00153927 119 0.00153927L72.0304 0.371376L72.2153 46.7863C72.2153 46.7863 72.216 59.3602 82.201 69.7164C92.9122 80.8258 106.056 80.6267 106.056 80.6267Z" fill="url(#paint1_linear_2_519)"/>
<path d="M212.936 94.6858L165.966 93.9462C165.966 103.192 172.623 107.26 174.102 107.63C194.005 112.606 213.49 104.117 225.88 116.506C235.681 126.307 233.277 150.902 233.092 161.072C214.23 161.072 195.923 161.627 188.341 154.045C182.276 147.98 181.499 139.067 181.869 135.368C185.752 139.252 203.505 137.772 208.498 138.697C212.492 139.437 217.559 144.923 219.593 147.573C219.531 144.06 218.187 135.812 213.306 130.93C207.203 124.828 191.67 123.718 183.903 123.718C177.69 123.718 169.356 118.417 165.966 115.767L166.151 141.471C166.151 141.471 166.521 154.045 177.431 164.955C188.156 175.681 199.991 175.311 199.991 175.311L246.961 174.941L246.776 128.526C246.776 128.526 246.775 115.952 236.79 105.596C226.079 94.4867 212.936 94.6858 212.936 94.6858Z" fill="url(#paint2_linear_2_519)"/>
<path d="M212.936 80.6272L165.966 81.3669C165.966 72.1208 172.623 68.0526 174.103 67.6828C194.006 62.707 213.491 71.1962 225.88 58.8066C235.681 49.0058 233.277 24.4114 233.092 14.2408C214.23 14.2408 195.923 13.6861 188.342 21.2678C182.276 27.3332 181.5 36.2463 181.869 39.9447C185.753 36.0614 203.505 37.5408 208.498 36.6162C212.492 35.8765 217.559 30.3905 219.593 27.74C219.532 31.2535 218.188 39.5009 213.306 44.3828C207.204 50.4852 191.67 51.5947 183.904 51.5947C177.69 51.5947 169.357 56.8957 165.966 59.5463L166.151 33.8424C166.151 33.8424 166.521 21.2678 177.431 10.3575C188.157 -0.367861 199.992 0.0019665 199.992 0.0019665L246.961 0.371797L246.776 46.7868C246.776 46.7868 246.776 59.3607 236.791 69.7169C226.08 80.8263 212.936 80.6272 212.936 80.6272Z" fill="url(#paint3_linear_2_519)"/>
<defs>
<linearGradient id="paint0_linear_2_519" x1="72.1209" y1="175.031" x2="153.116" y2="94.0359" gradientUnits="userSpaceOnUse">
<stop stop-color="#B4D744"/>
<stop offset="1" stop-color="#87A922"/>
</linearGradient>
<linearGradient id="paint1_linear_2_519" x1="72.0304" y1="40.6832" x2="153.025" y2="40.6832" gradientUnits="userSpaceOnUse">
<stop stop-color="#B4D744"/>
<stop offset="1" stop-color="#87A922"/>
</linearGradient>
<linearGradient id="paint2_linear_2_519" x1="165.966" y1="134.629" x2="246.961" y2="134.629" gradientUnits="userSpaceOnUse">
<stop stop-color="#B4D744"/>
<stop offset="1" stop-color="#87A922"/>
</linearGradient>
<linearGradient id="paint3_linear_2_519" x1="165.966" y1="40.6836" x2="246.961" y2="40.6836" gradientUnits="userSpaceOnUse">
<stop stop-color="#B4D744"/>
<stop offset="1" stop-color="#87A922"/>
</linearGradient>
</defs>
</svg>
